<?xml version="1.0" encoding="utf-8"?>
<!-- Generator: Adobe Illustrator 24.1.2, SVG Export Plug-In . SVG Version: 6.00 Build 0)  -->
<svg version="1.1" id="Layer_1" xmlns="http://www.w3.org/2000/svg" xmlns:xlink="http://www.w3.org/1999/xlink" x="0px" y="0px"
	 viewBox="0 0 940.7 940.7" style="enable-background:new 0 0 940.7 940.7;" xml:space="preserve">
<style type="text/css">
	.st0{fill:#6C0002;}
	.st1{fill:#191717;}
	.st2{fill-rule:evenodd;clip-rule:evenodd;fill:#6C0002;}
	.st3{fill:#FF1C20;}
	.st4{fill-rule:evenodd;clip-rule:evenodd;fill:#9E0E1A;}
	.st5{fill-rule:evenodd;clip-rule:evenodd;fill:#F11623;}
	.st6{fill-rule:evenodd;clip-rule:evenodd;fill:#FC4F35;}
	.st7{fill-rule:evenodd;clip-rule:evenodd;fill:#2B060A;}
	.st8{fill-rule:evenodd;clip-rule:evenodd;fill:#4D111C;}
	.st9{fill-rule:evenodd;clip-rule:evenodd;fill:#F0645F;}
	.st10{fill-rule:evenodd;clip-rule:evenodd;fill:#F42E42;}
	.st11{fill-rule:evenodd;clip-rule:evenodd;fill:#E6C2B7;}
	.st12{fill-rule:evenodd;clip-rule:evenodd;fill:#982A40;}
	.st13{fill-rule:evenodd;clip-rule:evenodd;fill:#5A2D3C;}
	.st14{fill-rule:evenodd;clip-rule:evenodd;fill:#FD956B;}
	.st15{fill-rule:evenodd;clip-rule:evenodd;fill:#B33F35;}
	.st16{fill:#FFBE7E;}
	.st17{fill-rule:evenodd;clip-rule:evenodd;fill:#3F0205;}
	.st18{fill-rule:evenodd;clip-rule:evenodd;}
	.st19{fill-rule:evenodd;clip-rule:evenodd;fill:#1E1919;}
	.st20{fill-rule:evenodd;clip-rule:evenodd;fill:#5F3F3F;}
	.st21{fill-rule:evenodd;clip-rule:evenodd;fill:#302020;}
	.st22{fill-rule:evenodd;clip-rule:evenodd;fill:#231F20;}
	.st23{fill:#560206;}
	.st24{fill-rule:evenodd;clip-rule:evenodd;fill:#360001;}
	.st25{fill:#3F0205;}
	.st26{fill:#1E1919;}
	.st27{fill-rule:evenodd;clip-rule:evenodd;fill:#EAA149;}
	.st28{fill-rule:evenodd;clip-rule:evenodd;fill:#C98943;}
	.st29{fill-rule:evenodd;clip-rule:evenodd;fill:#915916;}
	.st30{fill:#FF7D4B;}
	.st31{fill:#070707;}
</style>
<path id="Right_Arm" class="st0" d="M482.2,495.4c0,0-35.7,0.3-59.6,10.8C398.6,516.6,394,546.6,394,554s3.1,29.9,3.1,29.9
	s-4.5,6-14.2,26.9c-9.7,20.9-10.9,45-11.2,71.7c-0.2,13.6-1.2,2.6,1.5,25.9c1.6,14,9.4,40.8,1.5,43.1
	c-36.8,10.5-47.1,27.4-56.9,32.9c-31.8,18-60.2,26.5-60.2,26.5L246,796.8c0,0-9.1-26.2-18.7-22c-3.6,1.6-1.8,9.1,0.7,16.4
	c4,11.6,5.7,12.1,0.8,16.2c-2.2,1.8-7.7,5.1-11.2,3c-4.9-3-11-14.1-10.6-24c0.4-11,11.6-23.9,3.6-31.3c-2.7-2.5-5.3,1.6-8.9,7.6
	c-1.3,2.2-4.1,4.7-5.1,7.2c-3.2,7.5-6.4,12.2-9.7,25.9c-0.8-0.5-1.8-8.4-2.5-16.3c-0.5-5.6,0.6-10.4,0.6-10.4s1.3-9.5,3.3-13.5
	c-0.5-9.4-3.5-9-8.2-4.4c-2.4,2.4-6,7.3-6.8,11.2c-1.2,6-3.6,10-4.3,14.9c-1.6,11.9-1.7,19.6-1.7,19.6s-2.9-4.6-3-9.1
	c-0.1-4.9,2.6-13,1.7-18.9c-1.7-11.5-6.2-14-10.7-6.4c-1.9,3.2-2.8,5.8-4.3,10.9c-1.6,5.6-2.6,12.1-2.9,18.1
	c-0.3,6.2-1.5,9-0.3,12.9c3.7,12.3,3,10.7,13.2,22.1c7.4,8.2,24,21.2,24,21.2s33,8,41.3,8.6c20.9,1.3,141.1-12,165-31.5
	c14-11.3,29.3-13.5,40-31.2c7.6-12.6,25.5-26.8,25.5-26.8s10.8-105.1,9.3-164.9C465.8,584,482.2,495.4,482.2,495.4z"/>
<path id="Right_Arm-Shadow_Above_Elbow" d="M371.7,682.6c-0.2,13.6-1.2,2.6,1.5,25.9c1.6,14,9.4,40.8,1.5,43.1
	c-9.1,2.6-18.6,6.6-27.6,11.2c-11.9,6.1-21.6,16.1-30.5,22.1c-11.5,7.8-20.5,10.8-20.5,10.8s29.8-7,39.9-1.6
	c14.1,7.5,32.3,17.2,38,20.3c7.3,4.1,12.9,12.8,12.9,12.8s5.9-2.8,19.6-9.8c13.9-7.1,21.8-19.4,31.9-31.9
	c8.9-10.9,21.6-11.5,21.6-60.9C460,714.1,372,655.9,371.7,682.6z"/>
<path id="Right_Arm-Armpit_Shadow" class="st1" d="M456.2,547.6c0,0-19,1.5-44.1,8.7c-21.9,6.2-15,27.7-15,27.7s-4.5,6-14.2,26.9
	c-9.7,20.9,20.9,42.2,20.9,42.2L456.2,547.6z"/>
<path class="st2" d="M482.5,490.9l-51,47.2c0,0-101.4,120.7-74.8,160.3c16.8,25.1,32.9,26.7,49.8,87.6c10,35.9-19.8,70.3-19.6,101.7
	c0.4,66.9,101.3,17.5,141.6,3.5c86.9-30.4,45.1-66.3,63-121.6c14.2-44.1,37.5-74.3,63.6-100.2c24.8-24.7-7.1-154.6-1.4-163.7
	c-12.7-8.8-44.1-9.1-47.6-24.8c-7.1-31.4-16.5-46.6-4.1-89.2c13.4-46.3-51-5.8-57-22.2c-5-13.7-22.9,22.4-36.5,75
	C505.8,455,482.5,490.9,482.5,490.9z"/>
<path class="st3" d="M588.6,423.9c0,0,10.5,7.5,19.4-16.5c9-23.9,9,10.5,32.9,3c13.2-4.1,10.5-22.4,10.5-22.4s13.5-10.5,13.5-25.4
	c0-15,0-9,0-9s9.7-2.2,10.5-8.2c0.7-6-3.7-12.7-3.7-12.7s7.7-3.7,3.8-8.2c-3.8-4.5-3.8-12.7,1.1-20.2c4.8-7.5,7.1-16.5,4.8-18.7
	c-2.2-2.2,8.2-3,6.7-8.2c-1.5-5.2-9.7-3.7-12,0c-2.2,3.7-3.7,7.5-7.5,7.5c-3.7,0-6-1.5-4.5-7.5c1.5-6-1.5-16.5-1.5-16.5
	s-3.7,12.7-9,12c-5.2-0.7-5.2-10.5-6-17.2c-0.7-6.7,3.7-11.2,7.5-11.2s3.7,0,3.7,0s2.2-9.7,4.5-12c2.2-2.2,7.5-8.2,7.5-12
	c0-3.7-16.5,5.5-14.2,1c2.2-4.5,8.2-3,8.2,3.7c0,6.7,6.3-6,8.4-11.2c2.1-5.2,2.1-13,2.1-13h6v-9c0,0,9-4,6-10c-3-6-8.5-8-9-12
	c-0.5-4-1.5-7-1.5-7s-2.5,10.5-2.5,15.5c0,5,0,13,0,13s-8-3-10-5.5c-2-2.5-2,8-2,8l-8-3c0,0-1.5,7.5-3,10c-1.5,2.5-6-5.5-3-10
	c3-4.5,7-7.5,7-7.5S649,180,650,176c1-4,1-9.5,3-13c2-3.5-2.5-7-5.5-8c-3-1-5,0.5-4,5.5c1,5-1.5,12-1.5,12s-3-2-3-6.5
	c0-4.5,1-16.5,2-19.9c1-3.5,5-16.5,1.5-23.4c-3.5-7-8-6-8-6s2,6.5,2,9c0,2.5-4.4-3.1-5.7-9c-1.3-5.9-8.3-16.9-9.8-18.9
	c-1.5-2-5.5,0-5.5,0s-2.5-3-2.5-7c0-4-7.5-9.5-9-11c-1.5-1.5-7.5,2.5-10.5-2c-3-4.5-3.5-10.5-8-14c-4.5-3.5-19.4-11.5-19.4-11.5
	s3.5,3.5,7,8c3.5,4.5-8,4.5-13-1c-5-5.5-19.4-13-27.9-16.5c-8.5-3.5-25.4-5-21.9-3.5c3.5,1.5,5.6,5-0.5,3c-6-2-5.5-3-13.5-6
	c-8-3-8.5,7-28.4-4c-10-5.5-16.1-7.9-21-9.4c-4.9-1.5-8.7-2.1-13.9-4.1c-10.5-4-4.5-10.5-9.5-7.5c-5,3-7.5,2-7.5-0.8s-4.5,0.3-6-2.2
	c-1.5-2.5-4-4-6-3c-2,1,7.2,0.1-2.5-0.3c-7.6-0.4,7.5,29-10.5,23.8c-9.2-2.7-7.5-11-16.4-15.5C363.4,7.7,355.3,5,355.3,5
	s18.3,8.2,20.9,13.4c9.1,17.9,35.2,38.1,26.9,41.1c-15.6,5.6,9.2,28.8,6,26.3c-18-14-17.9-6.1-25.4-9.3c-5.2-2.3-9.4-12.2-15-14.6
	c-5.2-2.2-4.2,4.2-8.6,2.2c-18.3-8.1-9.9,2.1-4.9,11.1c3.5,6.2-2.2,2.8-12,1.3c-5.7-0.9-7.7,4.8-23.2-2c-21.7-9.6-15.9,4.7-21.7,1.9
	c-7.1-3.4-9.2-16.7-18.2-21.3c-9.7-5,5.7,3.1,5.7,19.5c0,16.5,8.2,5.2,0,6.7c-2.5,0.5-12.9-9-26.3-11.5c-14.5-2.7-27.8,9.3-43.5,6.6
	c-10.6-1.8-24.9-11.1-31.4-11.6c-3.8-0.3-6.6-0.2-8,0.3c-10.5,3.7-13.5-0.7-15.7,5.2c-2.2,6,4.5,10.5,2.2,5.2c-2.2-5.2,8.2-0.7,6,3
	c-2.2,3.7-10.2,14.3-15.7,5.2c-16.1-26.2-79.7-29.7-79.7-29.7s18.7,14.2,12,16.5c-6.7,2.2-8,4.5-13.7,4.5c-5.7,0,9.2,3.7,12.2,3.7
	c3,0,2.2,4.5-1.5,7.5c-3.7,3-8.4-5.2-12-0.7C67.1,90,84.5,97.3,84.5,97.3s-5.2,0-11.2,0c-6,0,18.3,9.1,20.6,14.4
	c2.2,5.2-28.9,22.9-24.4,22.9c4.5,0,1.5,0.7,4.5,6c3,5.2-4.5,6,3,5.2c7.5-0.7,12-5.2,12-1.5c0,3.7,1.5,11.2,3.7,6
	c2.2-5.2,9.7-3.7,9.7-3.7s9,6,0,8.2c-9,2.2-10.5,7.5-9,11.2c1.5,3.7,4.5-2.2,8.2,0c3.7,2.2,3.7,11.2,3.7,11.2s-2.2-1.5-2.2,4.5
	c0,6,1.5,11.2,3.7,12.7c2.2,1.5,2.2,6.5,2.2,6.5s-2.2,4.7,3,4.7c5.2,0,9.7-5.2,9.7,1.5s2.2,11.2,5.2,9c3-2.2,4.5,0.7,4.5,3
	c0,2.2,4.5,4.5,7.5,4.5c3,0,9-3,9-3s9.7,1.5,9.7,5.2c0,3.7,23.9-6.2,21.7-7.7c-2.2-1.5-9.7,4.5-12,5.2c-2.2,0.7,0,2.2-3,4.5
	c-3,2.2-11.2,6.7-11.2,2.2c0-4.5-6,0.7-8.2-4.5c-2.2-5.2-6-4.5-9.7-8.2c-3.7-3.7-20.2,12.2-23.2,11.5c-3-0.7-9-7.5,0-6
	c9,1.5,11.2,2.2,13.5,4.5c2.2,2.2-1.5-9-9.7-12.7c-8.2-3.7-15.7-0.7-15.7-0.7l-3.7-9c0,0-3,7.5-3,13.5c0,6,2.2,8.2-1.5,10.5
	c-3.7,2.2,12-8.5,12-8.5c-7.5,2.2-13.5,9-13.5,2.2c0-6.7,0-6.7,0-6.7S71,231.1,71,225.9c0-5.2-4.2-6-4.2-6s1.1,0.7,0,6.7
	c-1.1,6,15,1.2,15,1.2s-7.8-0.7-7.8,1.5c0,2.2-6,7.5-6,10.5c0,3,6,4.5,6,4.5s5.2,3.7,0,6c-5.2,2.2-5.2,3-6,8.2
	c-0.7,5.2-7.5,8.2-7.5,8.2s-4.5-0.7,0,3.7C65,275,65,275,65,275s-4.7,9-6.5,9.7c-1.7,0.7-5,6,0,4.5c5-1.5,8-7.5,8,0
	c0,7.5-9,8.2-6.7,9.7c2.2,1.5,2.2,1.5,2.2,1.5s-3,3,4.5,3c7.5,0,7.5-4.5,7.5,0c0,4.5,2.2,6,3.7,2.2c1.5-3.7,3-10.5,5.2-9
	c2.2,1.5,3.7,5.2,6.7,3.7c3-1.5,8.2-15.7,8.2-15.7l1.5,4.5c0,0-1.5,8.2,2.2,6.7c3.7-1.5,0.7-7.5,5.2-6.7c4.5,0.7,3.7,9,6,7.5
	c2.2-1.5,3,1.5,6.7-7.5c3.7-9-1.5-12.7,3.7-9c5.2,3.7,0.7,1.5,5.2,3.7c4.5,2.2,8.2-3.7,8.2-3.7s3.7-2.2,6-5.2c2.2-3,8.2-4.5,8.2-4.5
	s-3.7,6.7-4.5,13.5c-0.7,6.7,0.7,3.7,7.5-3c6.7-6.7,5.2-12,7.5-14.2c2.2-2.2,6.7-4.5,9-6c2.2-1.5,5.2-3.7,10.5-7.5
	c5.2-3.7,12.7-5.2,13.5-2.2c0.7,3,4.5,0.7,4.5,4.5c0,3.7,5.2,3-3,12c-8.2,9-15,3-15,3s-9.7-7.5-12-0.7c-2.2,6.7,4.5,12.7,4.5,12.7
	s-3.7,2.2-6.7,2.2c-3,0-7.5-3-7.5,0.7c0,3.7,1.5,8.2,6.7,8.2c5.2,0,11.2,1.5,15.7-4.5c4.5-6,8.2-10.5,12-10.5c3.7,0,12.7,1.5,15-5.2
	c2.2-6.7,10.5-8.2,12.7-7.5c2.2,0.7,6.7-0.7,7.5,4.5c0.7,5.2,0.7,3.7-3.7,6c-4.5,2.2-13.5,0-20.2,7.5c-6.7,7.5-6.7,16.5-12.7,17.2
	c-6,0.7-3.7-6.7-6,0.7c-2.2,7.5-13.5,5.2-13.5,5.2s9.7,11.2,20.2,6.7c10.5-4.5,14.2-13.5,20.2-12.7c6,0.7,6-1.5,3-4.5
	c-3-3-7.5-7.5-7.5-7.5s2.2-7.5,8.2-7.5c6,0,1.5,7.5,9,7.5c7.5,0,3.7-9,8.2-6.7c4.5,2.2,5.2-3,13.5-3c8.2,0,14.2,9.7,9,9.7
	c-5.2,0-9-0.7-9,5.2c0,6,0,6.7-6,9.7c-6,3-14.2,6-22.4,9.7c-8.2,3.7-11.2,16.5-8.2,13.5c3-3,1.5-6,8.2-2.2c6.7,3.7,10.5,6.7,10.5,3
	c0-3.7,3.7-8.2,7.5-8.2c3.7,0,5.2-9.7,10.5-9.7c5.2,0,11.2,0.7,15.7,0c4.5-0.7,5.2,0.7,10.5,2.2c5.2,1.5,5.2,5.2,6,7.5
	c0.7,2.2,0.7,4.5-3,8.2c-3.7,3.7-6.7,6-11.2,6c-4.5,0-15,5.2-15,5.2l39.6-1.5h11.2c0,0,3.7,3,6,6c2.2,3,3.7,6.7,5.2,12
	c1.5,5.2-3-1.5,1.5,5.2c4.5,6.7,12.7,12.7,16.5,12.7c3.7,0,12.7,3.7,15.7,3.7c3,0-12.7-6.7-18.7-8.2c-6-1.5-4.5-12-4.5-12
	s3.7-1.5,10.5,0c6.7,1.5,15.7,12.7,15.7,12.7h4.5l0.7,13.5c0,0-8.2,6.7-10.5,9.7c-2.2,3-7.5,2.2-2.2,10.5c5.2,8.2,14.2,12,18,12.7
	c3.7,0.7,3,7.5,12-3c9-10.5,10.5-18.7,13.5-18.7c3,0,11.4,13,12.7,11.2c4.5-6,4.5-6,4.5-6s0.7,4.5,3.7,6.7c3,2.2,7.5-0.7,7.5-0.7
	l-3-11.2c0,0,9.7,0.7,10.5-3c0.7-3.7,9,8.2,9,8.2s0,4.5,3.7,9.7c3.7,5.2,10.5,8.2,10.5,8.2s-6-10.5-3.7-14.2
	c2.2-3.7,4.5,0.7,7.5-4.5c3-5.2,5.2-3.7,5.2-1.5c0,2.2,2.2,16.5,2.2,16.5c8.2,0,5.2-7.5,10.5-7.5c5.2,0,3.5,17.2,3.5,17.2l12.7,18.4
	c0,0-4.2-0.5-5.7-1.7c-1.3-1.1-5.4-7.4-5.4-7.4s1.3,9.6,2,11.1c6.6,14.2,40.2,19.9,44.7,24.4c4.5,4.5,3.5,36.9,3.5,36.9
	s29.6-15.1,42.7-41.9c8.1-16.5,19.8-27.9,20.6-24.9c0.7,3-6.4-13.5-6.4-13.5L588.6,423.9z"/>
<g>
	<path class="st4" d="M93.4,118.7c3,0,6,0,9,0C104.5,123.3,91.3,123.3,93.4,118.7z"/>
	<path class="st4" d="M114.4,118.7c3.5,0,7,0,10.5,0c0,0.5,0,1,0,1.5c-0.2,6.8-8.5,0.8-10.5,0C114.4,119.7,114.4,119.2,114.4,118.7z
		"/>
	<path class="st5" d="M304.4,118.7c22.9,0,45.9,0,68.8,0c-1.2,11.3-6.8,18.2-10.5,26.9c-10.6-5.7-15.8,1.6-23.9,6
		c2.2,4.4,8.2-3.6,7.5,4.5c-5.6-0.1-4.3-1.7-9,0c-1.2-10-13.1-9.5-19.4-10.5c0-4.5,7.5-1.4,7.5-6c-5.3-8.2-6.9-20.1-20.9-19.4
		C304.4,119.7,304.4,119.2,304.4,118.7z"/>
	<path class="st5" d="M383.7,118.7c9,0,18,0,26.9,0c-3,4.6,1.9,7.8-1.5,12c-3.7,0.2-4.6-2.4-7.5-3c-5.4,1.1-4.3,8.7-10.5,9
		C389.6,129.7,388,122.8,383.7,118.7z"/>
	<path class="st6" d="M265.5,130.6c-6.5-2.1-5.5-2.4-12-4.5C256.1,121.2,267,122.9,265.5,130.6z"/>
	<path class="st6" d="M250.5,124.7c0.5,6.5-8.3,3.7-7.5,10.5C235.9,131.8,244.4,124.1,250.5,124.7z"/>
	<path class="st5" d="M129.3,130.6c6.3-0.3,5.3,6.7,9,9C133.9,143.9,130.2,134.8,129.3,130.6z"/>
	<path class="st7" d="M681.4,141.1c0.2,3.7,0.2,7.2-1.5,9c-2.6-1.4-5.2-2.8-4.5-7.5C676.7,141.4,678.8,141,681.4,141.1z"/>
	<path class="st6" d="M415.1,142.6c5-1.5,2.3,4.7,3,7.5c-1.5,0-3,0-4.5,0C410.8,147.4,414.2,145.7,415.1,142.6z"/>
	<path class="st5" d="M560.2,142.6c1.5,0,3,0,4.5,0c2,6.5-3.6,5.4-4.5,9C556.1,150.2,562.3,146.9,560.2,142.6z"/>
	<path class="st8" d="M657.5,145.6c3.3,1.1,0.7,8.5-3,7.5C653.2,148.3,655.8,147.4,657.5,145.6z"/>
	<path class="st8" d="M133.8,148.6c0.5,7.1-9.2,7.2-12,3C122.2,146.9,129.3,149.1,133.8,148.6z"/>
	<path class="st5" d="M564.7,150.1c2.9,4.9,6.5,12.5,4.5,18C564.1,166.1,563.1,154,564.7,150.1z"/>
	<path class="st7" d="M673.9,150.1c3.3,0.2,0.6,6.3,1.5,9C669.4,158.7,671,152.3,673.9,150.1z"/>
	<path class="st7" d="M705.3,151.6c3.2,1.3,5.3,3.7,4.5,9c-6.5,0.5-8-4-13.5-4.5C697.6,152.8,704.1,154.8,705.3,151.6z"/>
	<path class="st5" d="M202.6,160.6c2,0,4,0,6,0C209.8,166.3,201.5,166.3,202.6,160.6z"/>
	<path class="st7" d="M678.4,160.6c3.8,0.2,3.5,5.6,1.5,7.5C676.1,167.9,676.4,162.5,678.4,160.6z"/>
	<path class="st5" d="M190.7,165c2.7-6.8,3.2,8.3,6,1.5c4,1.7,0.1,7.9-4.5,6C191.3,170.4,193.9,164.8,190.7,165z"/>
	<path class="st5" d="M183.2,165c4.1,1.4,3.4,7.5,4.5,12C183.6,175.6,184.2,169.5,183.2,165z"/>
	<path class="st9" d="M449.5,171c2.5,0,5,0,7.5,0c-0.2,3.8-2.2,5.8-6,6C449.8,175.7,449.4,173.6,449.5,171z"/>
	<path class="st5" d="M287.9,187.5c2.8,1.5-0.7,9.1-4.5,9C282.1,190.7,287.1,191.1,287.9,187.5z"/>
	<path class="st10" d="M262.5,189c2.6,1.4,3.3,4.7,3,9C258.5,197.9,262.6,193.7,262.5,189z"/>
	<path class="st6" d="M439,189c6.2,0.4,1.9,13.1-3,12c-4.4-2.8,6.3-6.6-3-6C432.3,190.2,440.5,194.4,439,189z"/>
	<path class="st4" d="M681.4,208.4c-0.5,0-1,0-1.5,0c-0.2,2.7,1.5,3.5,4.5,3c-2.2,6.6-8.2,0.6-6-6c-11.3,6.3-3.5,32-16.5,32.9
		c5.3-12.6,6.8-29.1,12-41.9C678.6,198.3,680.5,202.9,681.4,208.4z"/>
	<path class="st8" d="M129.3,198c6.4,0.9,2.9,5.9,10.5,3C139.4,207.5,127.6,203.2,129.3,198z"/>
	<path class="st4" d="M198.1,214.4c-6.4-1-10.7-4.3-12-10.5C193.1,198.6,200.9,210.1,198.1,214.4z"/>
	<path class="st10" d="M319.3,202.5c6.4,0.1,11.4,1.6,15,4.5c0,3.5,0,7,0,10.5c-5.5-2-12.1-2.9-18-4.5
		C315.4,207.5,317.3,205,319.3,202.5z"/>
	<path class="st10" d="M653,242.8c0,1.5-1.2,1.8-1.5,3c-10-6.8,1.3-12,3-19.4c-2.4-2.7-4.7,1.1-7.5-3c4.4-10.2,4.1-8.2,9-18
		c2.5,1.5,1.1,6.9,4.5,7.5c-1.2,7.8-4.5,13.4-3,23.9C655.3,238.2,651.7,238.1,653,242.8z"/>
	<path class="st6" d="M587.1,235.4c-2.3-5.2-9.4-5.6-7.5-15c15.8,5.2,16,19,18,35.9c-3.5,0.5-6.2,2.9-9,0
		C590.2,248.5,590.1,242,587.1,235.4z"/>
	<path class="st10" d="M183.2,227.9c-5.5-4.2-8.8,3.9-13.5,0C171.9,226.6,182.8,221.4,183.2,227.9z"/>
	<path class="st4" d="M78.5,236.9c0.6-3.3,7.4-0.6,10.5-1.5C89.2,243,81.8,238.1,78.5,236.9z"/>
	<path class="st4" d="M133.8,235.4c2.5,0,5,0,7.5,0c0,2,0,4,0,6C136.2,242,132.8,240.9,133.8,235.4z"/>
	<path class="st10" d="M210.1,236.9c-1.1,5-10.8,9.5-10.5,0C204.4,234.8,204.6,236.5,210.1,236.9z"/>
	<path class="st4" d="M154.8,236.9c2.2,1.3,5.8,1.2,4.5,6c-1.5,0-3,0-4.5,0C154.8,240.9,154.8,238.9,154.8,236.9z"/>
	<path class="st10" d="M183.2,236.9c1.5,0,3,0,4.5,0c-2.2,5.6-1.1,6.7,4.5,4.5c-1.1,7.1-6.1,2.5-12,3
		C179.1,239.7,185.3,242.5,183.2,236.9z"/>
	<path class="st10" d="M624.5,245.8c-1.5,0-3,0-4.5,0c-0.1-4.1,2.5-3,0-6c-4.7-0.7-4.8,3.2-4.5,7.5c-2.1-1.8-2.8-5.1-3-9
		c2.7-2.8,3.8,1.2,9,0C623.1,240.3,623,243.9,624.5,245.8z"/>
	<path class="st6" d="M624.5,245.8c0,1,0,2,0,3c0,6.5,0.9,13.9-3,16.5c-2,3.5-4.2,6.8-3,13.5c-9.3-8.5,2.5-20.2-3-31.4
		c-0.3-4.3-0.2-8.2,4.5-7.5c2.5,3-0.1,1.9,0,6C621.6,245.8,623,245.8,624.5,245.8z"/>
	<path class="st4" d="M74,242.8c2.9,0.6,6.4,0.5,6,4.5c-2,0-4,0-6,0C74,245.8,74,244.3,74,242.8z"/>
	<path class="st10" d="M223.6,253.3c1.5-3.3,10-1.2,9,3c-4.2-1.2-3.9,2.1-7.5,1.5C225.2,255.7,225.3,253.6,223.6,253.3z"/>
	<path class="st10" d="M241.5,256.3c2.5,0,5,0,7.5,0C251.1,261.7,238.9,263.5,241.5,256.3z"/>
	<path class="st11" d="M479.4,269.8c10.3,0.2,19.5,14.4,25.4,23.9c6.6-1.5,3.9-0.2,9,1.5"/>
	<path class="st12" d="M211.6,277.3c-2.6-8,10.9-3.8,16.5-7.5C226.3,279.2,216.6,271.4,211.6,277.3z"/>
	<path class="st5" d="M298.4,272.8c-2.6,2.4-8,2-12,3c0.2-1.7-0.3-2.7-1.5-3C288.2,266.2,294.7,274.2,298.4,272.8z"/>
	<path class="st6" d="M427.1,272.8c0.4,3.9-0.5,6.4-4.5,6C419.9,276.2,423,272.9,427.1,272.8z"/>
	<path class="st4" d="M99.4,286.2c0.6-3.6-2.7-3.3-1.5-7.5c2.6-0.1,4.7,0.3,6,1.5c1.1,4.1-3,3-3,6
		C100.4,286.2,99.9,286.2,99.4,286.2z"/>
	<path class="st6" d="M416.6,278.8c4.1-1.1,3,3,6,3c-0.6,2.8-3.2,3.8-3,7.5c-4.6-1-2.9-1-7.5,0c-2.8-2.7,1.2-3.8,0-9
		C414.2,280.4,416.3,280.5,416.6,278.8z"/>
	<path class="st12" d="M195.2,292.2c2.3,6.3-7.7,0.2-7.5,4.5C183.1,294,191.9,292.1,195.2,292.2z"/>
	<path class="st4" d="M620.1,292.2c2,0,4,0,6,0c0,2,0,4,0,6C622.2,298,620.2,296,620.1,292.2z"/>
	<path class="st5" d="M367.2,293.7c0.9,5.4-4.4,4.5-9,4.5C359.5,295,361.9,292.9,367.2,293.7z"/>
	<path class="st5" d="M90.4,304.2c-1.2-1.1-4-10.4,1.5-9c0,0.5,0,1,0,1.5c1.3,1.7,2,4,1.5,7.5C92.4,304.2,91.4,304.2,90.4,304.2z"/>
	<path class="st4" d="M626,305.7c-2,0-4,0-6,0C618.7,298.7,628,298,626,305.7z"/>
	<path class="st5" d="M361.2,304.2c-0.7-3.4,8.1-4.6,9-1.5C371.6,308.2,362.3,305.4,361.2,304.2z"/>
	<path class="st12" d="M184.7,310.2c-3.1,4.5-7.9-2-13.5,0C174,303,179.5,310.7,184.7,310.2z"/>
	<path class="st10" d="M370.2,334.1c4.4,1.3-0.9,4.8,0,7.5"/>
	<path class="st10" d="M368.7,349.1c4.2-1.2,3.9,2.1,7.5,1.5c-1.3,2.2-4.8,2.2-7.5,3C368.7,352.1,368.7,350.6,368.7,349.1z"/>
	<path class="st5" d="M445,382c1.3-2.6,5-4.6,0-6"/>
	<path class="st5" d="M451,376"/>
	<path class="st8" d="M581.2,373c0.5,3.5-0.2,5.7-1.5,7.5c-3.6,0.6-3.3-2.7-7.5-1.5C573.5,375.3,575.7,372.5,581.2,373z"/>
	<path class="st5" d="M442,399.9c-0.5,0-1,0-1.5,0"/>
	<path class="st13" d="M648.5,397c0-1,0-2,0-3"/>
	<path class="st4" d="M401.6,398.7c5.6-1.6,2.4,5.6,7.5,4.5c-1.1,5.5-7.5-0.1-12,0C397.3,400.3,402.1,402.1,401.6,398.7z"/>
	<path class="st4" d="M615.6,413.4c1.5,0,1.8-1.2,3-1.5c2,0,4,0,6,0c-1.1,6.8-4.1,3.1-9,3C615.6,414.4,615.6,413.9,615.6,413.4z"/>
	<path class="st5" d="M283.4,323.6c-5.1,1.7-5.8-8.8-9-13.5c-17.4-6.8-25.1-0.8-37.4,7.5c0.3-5.2,3.8-8.7-4.5-7.5
		c0.2-2.7,7.4-2.2,13.5-3c4.7-2.3,4.6-9.4,4.5-16.5c3.1-1.4,5.9-3.1,9-4.5c-6.2-11.6-25.8-5.4-32.9,1.5c-4.5-2.4-7.4-6.6-15-6
		c3.4-6.6,17.2-2.7,19.4-10.5c-11.8-12.6-21.2,2.1-32.9,6c-1.8-0.2-1.3-2.7-1.5-4.5c4.9-1.1,3.6-8.4,6-12c-3-7.6-18.9-16.1-23.9-4.5
		c-2.6-0.4-3.4-2.6-3-6c-5.9,0.1-8.9,3.1-9,9c-1.3-1.2-3.4-1.6-6-1.5c-3.2,4.1,3.4,3.7,0,9c-5.9,6.4-11.5-1.9-18,1.5
		c3.6-6.6,4.6-14.3,4.5-20.9c-9.8,1.8-12.3,11.5-22.4,9c1.8,3.7,7,4,7.5,9c3.5-0.7,4-6.6,7.5-3c2.7,10.7-10.1,5.8-12,12
		c-2.4,1.1-2.4-7.1,0-6c-2.4-6.5-11.4-4-12,3c0.4,6.3,5.6-1.7,7.5,3c-1.7,3.3-13.4,1.5-12,12c-4.9,0.8-7.5,2.2-10.5,0
		c0-3,4.1-1.9,3-6c-1.3-1.2-3.4-1.6-6-1.5c-1.2,4.2,2.1,3.9,1.5,7.5c-2,0.5-2.4,2.6-4.5,3c-5.3-1.7-17.2,4.7-19.4-6
		c5.8,2.7,8.4-5.4,6-6c3.7-2.3,9.3-2.7,12-6c-1.6-1.4-0.5-5.5-4.5-4.5c-5.8,1.4,5,5.5,0,6c-7.7,1-2.2-3.1-3-7.5
		c-4.2-4.8,4.8-35.7,3-35.9c7.9-7,30.5,9.2,29.9-13.5c11.6,4.1,21.5,2.1,28.4,12c6.3-2,0-4.9,0-9c6.6,0.6,4.9-4.6,10.5-1.5
		c1.3,1.7,2,4,1.5,7.5c2.7-1.9,9.3-7.5,13.5-3c2.8-0.2,1-4.9,4.5-4.5c-2.7-7.3-6.3-13.7-15-15c-5.4,2.3-0.2,8.5-4.5,13.5
		c-5.2-1.1,0.7-8.7-7.5-9c2.1-5.4,7-7.9,6-16.5c-1.8-6.1-10.2-3.3-10.5-7.5c6.2-1.2,7.7,2.3,13.5,1.5c1.2-0.3,1.5-1.5,3-1.5
		c2.5-11-9.5-7.4-15-10.5c5.9-4,4.9-10.6,0-15c3,0,6,0,9,0c-0.2,4.7,2.6,4.9,6,9c3.7-1.2,5.9-4.1,10.5-4.5c2.4,5.9-3.9,3.1-4.5,6
		c4.5,4.9,6.6,9.7,12,16.5c8.2-0.8,14.9,0.1,18,4.5c7,1.5,6.7-4.2,9-7.5c5.9,0,1,10.9,6,12c5.7-0.8,8.8-4.2,7.5-12
		c4.4,1.6,4.7,7.2,12,6c1.3-0.7,2.7-1.3,3-3c-1.1-4.4-4.7-6.3-10.5-6c-0.4-3.9,5.8-1.2,4.5-6c2.7-0.2,3.2,1.8,6,1.5
		c6-5.6,0.7-13.7-7.5-13.5c-2,0.5-1.2,3.7-1.5,6c-2.2-1.3-4.7-2.2-4.5-6c-3.3,0.2-3.2,3.8-3,7.5c-5.2-4.8-8-12-13.5-16.5
		c5.6-1.6,4.3,3.7,9,3c1.9-5.9-4.9-3.1-3-9c2,0,4,0,6,0c-1.9,6.4,0.5,7,4.5,10.5c2.4-2.6,2-8,3-12c-12-4.3-10.4-13-25.4-13.5
		c0-2,0-4,0-6c-5.6-1.1-7.2,1.8-12,1.5c-1.5-2-1.4-5.6-4.5-6c0-0.5,0-1,0-1.5c13,0,25.9,0,38.9,0c0,3.5-2.6,4.4-1.5,9
		c9.4-6,8.1,6.5,18,4.5c-1.8,8.5,8.1,8.3,1.5,13.5c2.3,4.1,8.8-0.1,9-3c0.2-4.6-4.7-4.3-3-10.5c3.5-1.9,2.8,0.2,7.5-1.5
		c2.6,1.4,3,5,6,6c13.7,0.8,14.3-11.7,28.4-10.5c8,7,2.9,27,12,32.9c0.9,10-4.6,17.8-13.5,13.5c2.8,2.9,2.7,1.2,1.5,6
		c-4.1,1.1-3-3-6-3c-3.9,0.4,2.1,2.6,0,6c1.2-0.8,2.4-1.6,4.5-1.5c0.8,3.9-8.7,5.1-3,9c-1.5,4.6-5-0.7-6-1.5c-1.8,2.4,2,11.9,6,13.5
		c-1.1,3.9-6,11.9-3,15c-6.1,6.5-20.7,3.3-19.4,13.5c-21.3,0.3-35.9,9.3-46.4,0c-2.6,1.4-3.3,4.7-3,9c11.9-3.9,2.1,2.1,16.5-1.5
		c2.2,5.7-6.7,0.3-4.5,6c5-0.9,23.2,7.1,28.4,6c4,3.4-2.1,7.5,1.5,10.5c4.8-3.9,14.6-6.4,18,1.5c-9,2.2-11.8,2.8-20.9,6
		c0.9,8.5,12.9,2.9,19.4,3c3.8,0,8.2,5.1,7.5,0c4.5,0.5,5.5,4.5,7.5,7.5c-4.6,5-10.3-0.4-15,4.5c13.1,7.9,36.9-5.2,53.9,1.5
		c-3.2,6.8-19,0.9-22.4,7.5c7.2,8.4,20.3-5.9,25.4,1.5c2.2-1.8,1.4-6.5,7.5-4.5c-4.5,4.3-1.4,7.4-7.5,9c-3.8,0.1-1.8-1.1-1.5-3
		c-10.3-1.8-3,7.2-10.5,6c9.1,5.3,16.7,1,19.4,7.5c11.7-5.1,30.5-3.7,37.4,4.5c0.6-8.2,3.9,0.5,12-3c4.1,13.1-2.5,18.6-7.5,25.4
		c5.5-0.3,5.7-2.1,10.5,0c2.3-1.7,3.7-4.3,6-6c6.2-0.7,7.2,3.8,7.5,9c-4.4,1.3-4.6,1.3-9,0c0.5,6.4,0.1,12.1-6,12
		c2.2,3.2,7.5,3.5,7.5,9c-14.9,6.1-18.4,6.7-32.9,9c-2.2,0.7,0.6,1.9,0,4.5c-7.3-0.7-13.4,7.4-18,4.5c-1.5-5,4.7-2.3,7.5-3
		c-0.7-1.8-1.9-3.1-4.5-3 M343.3,364 M234.1,144.1c-2.4-0.1-1.2-3.8-4.5-3c-2.8,2.8-0.2,3.8,0,7.5c2.9,0.4,3-2,4.5-3
		c0.6,3.7,5.8,0.1,4.5-3C236.5,142.5,235.3,143.3,234.1,144.1z M265.5,198c0.3-4.3-0.4-7.6-3-9C262.6,193.7,258.5,197.9,265.5,198z
		 M186.2,203.9c1.3,6.2,5.5,9.4,12,10.5C200.9,210.1,193.1,198.6,186.2,203.9z M169.7,227.9c4.7,3.9,7.9-4.2,13.5,0
		C182.8,221.4,171.9,226.6,169.7,227.9z M172.7,241.4c-6.5-4.7,7.6-1.2,7.5-4.5c-7.5-1.9-14.8-4.1-18-10.5c-0.1,4.5-11.8,5.1-7.5,9
		C161.3,225.1,169.9,243.2,172.7,241.4z M88.9,235.4c-3.1,0.9-9.8-1.8-10.5,1.5C81.8,238.1,89.2,243,88.9,235.4z M141.3,241.4
		c0-2,0-4,0-6c-2.5,0-5,0-7.5,0C132.8,240.9,136.2,242,141.3,241.4z M199.6,236.9c-0.4,9.5,9.4,5,10.5,0
		C204.6,236.5,204.4,234.8,199.6,236.9z M154.8,242.8c1.5,0,3,0,4.5,0c1.3-4.8-2.3-4.7-4.5-6C154.8,238.9,154.8,240.9,154.8,242.8z
		 M180.2,244.3c5.8-0.5,10.9,4.1,12-3c-5.6,2.2-6.7,1.1-4.5-4.5c-1.5,0-3,0-4.5,0C185.3,242.5,179.1,239.7,180.2,244.3z
		 M225.1,257.8c3.6,0.6,3.3-2.7,7.5-1.5c1-4.2-7.4-6.3-9-3C225.3,253.6,225.2,255.7,225.1,257.8z M249,256.3c-2.5,0-5,0-7.5,0
		C238.9,263.5,251.1,261.7,249,256.3z M370.2,341.6c-0.9-2.7,4.4-6.2,0-7.5 M368.7,353.6c2.7-0.8,6.2-0.8,7.5-3
		c-3.6,0.6-3.3-2.7-7.5-1.5C368.7,350.6,368.7,352.1,368.7,353.6z"/>
	<path class="st10" d="M440.5,399.9c-1.3,1.2-0.9,4.1-3,4.5c1.6-5.2-3.4-11.4-6-7.5c-3.6-2.4-7-4.9-13.5-4.5c-5-1.3-10.1,0.8-15,4.5
		c-5.8-4.7-15.3-0.8-20.9-3c0-2,0-4,0-6c6,2.4,9.9-0.2,16.5,0c0.6-4.6-1.7-6.5,3-12c-20-0.2-35.5,7.9-49.4,18c-1.1-4.1,3-3,3-6
		c-0.6-3.3-7.4-0.6-10.5-1.5c0-0.5,0-1,0-1.5c2.1-3.7,4.2-3.6,6-4.5c0.7-2.4-8.2-2.4-7.5,0 M341.8,376c4.5,3,10.7-5.2,18-4.5
		c0.6-2.6-2.2-3.8,0-4.5c14.5-2.3,18.1-2.9,32.9-9c0-5.5-5.2-5.7-7.5-9c6.1,0.1,6.4-5.5,6-12c4.4,1.3,4.6,1.3,9,0
		c-0.3-5.2-1.2-9.7-7.5-9c-2.3,1.7-3.7,4.3-6,6c-4.7-2.1-5-0.3-10.5,0c4.9-6.8,11.6-12.3,7.5-25.4c-8.1,3.5-11.4-5.2-12,3
		c-6.9-8.2-25.7-9.5-37.4-4.5c-2.8-6.5-10.3-2.2-19.4-7.5c7.5,1.2,0.2-7.8,10.5-6c-0.3,1.9-2.3,3.1,1.5,3c6.1-1.6,3-4.6,7.5-9
		c-6-2.1-5.3,2.7-7.5,4.5c-5.2-7.4-18.2,6.9-25.4-1.5c3.4-6.6,19.2-0.7,22.4-7.5c-16.9-6.7-40.8,6.4-53.9-1.5
		c4.7-4.9,10.4,0.5,15-4.5c-2-3-3-7-7.5-7.5c0.7,5.1-3.7,0-7.5,0c-6.6-0.1-18.5,5.5-19.4-3c9.2-3.2,11.9-3.8,20.9-6
		c-3.4-7.9-13.1-5.4-18-1.5c-3.6-3,2.5-7.1-1.5-10.5c-5.2,1.1-23.5-6.9-28.4-6c-2.2-5.7,6.7-0.3,4.5-6c-14.3,3.6-4.6-2.4-16.5,1.5
		c-0.3-4.3,0.4-7.6,3-9c10.5,9.3,25.1,0.3,46.4,0c-1.2-10.1,13.4-7,19.4-13.5c-3-3.1,1.9-11,3-15c-4-1.6-7.8-11.1-6-13.5
		c0.9,0.8,4.5,6.1,6,1.5c-5.7-3.9,3.8-5.1,3-9c-2.1-0.1-3.3,0.7-4.5,1.5c2.1-3.4-3.9-5.6,0-6c3,0,1.9,4.1,6,3c1.2-4.8,1.3-3.1-1.5-6
		c8.8,4.4,14.4-3.5,13.5-13.5c-9.1-5.9-4-25.9-12-32.9c-14.1-1.2-14.7,11.2-28.4,10.5c-3-1-3.4-4.6-6-6c-4.7,1.7-4-0.4-7.5,1.5
		c-1.7,6.2,3.1,5.8,3,10.5c-0.2,2.9-6.7,7.1-9,3c6.6-5.2-3.3-5-1.5-13.5c-9.9,2-8.6-10.4-18-4.5c-1.1-4.6-44.1-36.9-44.1-36.9
		c78,20.7,116.6,27.9,127.9,27.9c0,0.5,0,1,0,1.5c14.1-0.6,15.7,11.3,20.9,19.4c0,4.5-7.5,1.4-7.5,6c6.3,1,18.2,0.5,19.4,10.5
		c4.7-1.7,3.4-0.1,9,0c0.7-8.1-5.3-0.1-7.5-4.5c8.1-4.4,13.3-11.7,23.9-6c3.7-8.8,9.3-15.6,10.5-26.9c3.5,0,7,0,10.5,0
		c4.4,4.1,5.9,11,7.5,18c6.2-0.3,5.1-7.9,10.5-9c2.8,0.6,3.8,3.2,7.5,3c3.4-4.2-1.5-7.4,1.5-12c7,0,14,0,20.9,0
		c-4.8,8.7-7.5,19.2-3,29.9c-2.6,1.4-4.6,3.3-6,6c-1.6-0.4-1-3-3-3c-2.8,5.2-7.7,8.2-9,15c-5.7,0.7-9.5-0.4-12-3
		c-0.1-2.1-0.2-4.2,1.5-4.5c-4.6-8.9-13.3,0.6-23.9-1.5c-2.7-3.3-5.4-6.5-12-6c-2.2,1.3-3.2,3.8-3,7.5c0.4,3.1,6.6,0.4,7.5,3
		c1.9,8.5-2,13.8,0,18c-6-6-9.2,5.2-16.5-1.5c-4,4-8.2,7.7-15,9c0.3-6.2,7.9-5.1,9-10.5c-0.9-6.6-3.2-11.8-12-10.5
		c-2.6,0.4-3.4,2.6-3,6c-3,0-6,0-9,0c-2.1-1.9-0.7-7.3-4.5-7.5c-3.9,1.1-3,7-6,9c-2.7-1.8-7.9-1.1-9-4.5c-3.4,0.6,0.8,8.8-6,6
		c0,6.5,7.1,5.9,9,10.5c-6.7,5.8-13.1,11.9-16.5,20.9c1.5,9.4,4.9,17,13.5,19.4c3.2-1.3,5.1-3.9,10.5-3
		c-1.8,16.9,15.2,11.8,22.4,16.5c1.8-0.2,1.3-2.7,1.5-4.5c3.2,4.3,19.1,2.1,15,9c6.4,1.4,4-5.9,9-6c-1.4,6-1,14-9,13.5
		c1,17.2,22.4,16.4,32.9,9c-2.6-4.1-8.5-7.8-3-12c11.9-0.9,2.9,19.1,13.5,19.4c1.2,11.1-5.6,14.3-7.5,22.4c-1.5,0-1.2-1.8-1.5-3
		c-3.5,0.5-0.9,7.1-6,6c-0.6,5.1,2.6,6.4,4.5,9c-0.4,3.5-4-1.7-6-1.5c7.1,13.7,28.2,24.8,20.9,43.4c4,1,4.2,5.8,9,6
		c-4.4,16.1,21.5,15.5,26.9,22.4 M370.2,302.7c-0.9-3.1-9.7-1.9-9,1.5C362.3,305.4,371.6,308.2,370.2,302.7z M253.5,126.1
		c6.5,2.1,5.5,2.4,12,4.5C267,122.9,256.1,121.2,253.5,126.1z M243,135.1c-0.8-6.8,8-4,7.5-10.5C244.4,124.1,235.9,131.8,243,135.1z
		 M413.6,150.1c1.5,0,3,0,4.5,0c-0.7-2.8,2-9-3-7.5C414.2,145.7,410.8,147.4,413.6,150.1z M283.4,196.5c3.7,0.1,7.3-7.5,4.5-9
		C287.1,191.1,282.1,190.7,283.4,196.5z M284.9,272.8c1.2,0.3,1.7,1.3,1.5,3c4-1,9.3-0.6,12-3C294.7,274.2,288.2,266.2,284.9,272.8z
		 M358.2,298.2c4.5,0.1,9.8,0.9,9-4.5C361.9,292.9,359.5,295,358.2,298.2z M451,376 M445,376c5,1.4,1.3,3.3,0,6"/>
	<path class="st10" d="M74,266.8c3.3-3.3,7.8-6.3,12-1.5c0.8,4.4-4.8,8.4,3,7.5c5-0.5-5.8-4.6,0-6c4-1,2.9,3.1,4.5,4.5
		c-2.7,3.3-8.3,3.7-12,6c2.4,0.6-0.2,8.7-6,6c2.2,10.7,14.1,4.2,19.4,6c0.3,1.3-0.6,1.4-1.5,1.5c-2.4-0.4-2.6,1.4-4.5,1.5
		c-7.6-1.6-7.5,4.4-12,6c-1,0-2,0-3,0C74,287.7,74,277.3,74,266.8z"/>
	<path class="st6" d="M416.8,376.6c-5.4-7-12.1-10-7.7-26.1c-4.8-0.2-4.9-5-9-6c7.3-18.6-13.8-29.7-20.9-43.4c2-0.2,5.6,5,6,1.5
		c-1.9-2.6-5.1-3.9-4.5-9c5.1,1.1,2.5-5.5,6-6c0.3,1.2,0,3,1.5,3c1.8-8.1,8.7-11.3,7.5-22.4c-10.6-0.4-1.6-20.3-13.5-19.4
		c-5.5,4.1,0.4,7.8,3,12c-10.6,7.4-31.9,8.2-32.9-9c8,0.5,7.5-7.4,9-13.5c-4.9,0.1-2.6,7.4-9,6c4.2-6.8-11.8-4.7-15-9
		c-0.2,1.8,0.3,4.2-1.5,4.5c-7.2-4.7-24.2,0.4-22.4-16.5c-5.4-0.9-7.2,1.7-10.5,3c-8.5-2.4-11.9-10-13.5-19.4
		c3.4-9.1,9.8-15.2,16.5-20.9c-1.9-4.6-9-4-9-10.5c6.8,2.8,2.6-5.4,6-6c1.1,3.4,6.3,2.7,9,4.5c3-2,2.1-7.9,6-9
		c3.8,0.2,2.4,5.6,4.5,7.5c3,0,6,0,9,0c-0.4-3.4,0.4-5.6,3-6c8.8-1.3,11.1,3.9,12,10.5c-1.1,5.4-8.7,4.3-9,10.5c6.8-1.2,10.9-5,15-9
		c7.2,6.7,10.5-4.5,16.5,1.5c-2-4.2,1.9-9.5,0-18c-0.9-2.6-7.1,0.1-7.5-3c-0.2-3.7,0.8-6.2,3-7.5c6.5-0.5,9.3,2.7,12,6
		c10.7,2.1,19.4-7.4,23.9,1.5c-1.7,0.3-1.6,2.4-1.5,4.5c2.4,2.6,6.3,3.7,12,3c1.3-6.7,6.2-9.8,9-15c2,0,1.4,2.6,3,3
		c1.4-2.6,3.3-4.6,6-6c-4.5-10.8-9-13.7-4.2-22.4c-51.2-7.5-45-7.5-2.8-22c9.6-3.3-32.4-66.3,5.6-40.4c9.6,6.6,66.1,53.9,78.9,53.9
		c0,1.5,6.6,2.1,7.8,2.4c-0.8,6.3,2.6,8.4,3,13.5c4.9,0.9,7-1,10.5-1.5c6.8,7.4,16.4,19.2,12,32.9c2.6,2.7,6.3,6.3,9,1.5
		c13.6,10.8,3.6,31.5,13.5,47.9c2.2-1.8,2-7.1,6-3c1.1-5.5-3.7-8.3,0-12c10.8-1.9,4.3,13.6,12,15c-3.4,5.1-5.7,11.2-9,16.5
		c6.2,0.7,3.8,2.6,0,7.5c5.7,6.8,7.8,17.1,15,22.4c3.7,18.2,14.6,29.2,29.9,35.9c-1.9,4.6-1.1,5.8,1.5,9c1,1.2,2.3,4.1,0,4.5
		c-0.5,0-1,0-1.5,0c-0.4-2.4-4.7-12.5-6-4.5c4.1,8.5-6.3-6.3-4.5,4.5c0,0.5,0,1,0,1.5c-10.5-6.5-10,8-7.5,15
		c-3.8-7.6-17.1-2.3-20.9,3c-2,1.9-5.5,1.9-7.5,0c2.5-3.5,5.5-6.5,9-9c-0.8-3.7-5.8-3.2-4.5-9c7.7-4.9,6.9,5.4,15,4.5
		c1.8,1.7,3.1,1.3,3-1.5c1.8-3.8-2.1-5.6,0-13.5c3.1,1.9,4.1,5.9,7.5,7.5c2.4,0.4,2.6-1.4,4.5-1.5c0.4-3.4-0.4-5.6-3-6
		c-1.3-6.7-7.5-8.5-9-15c-0.4-7.1-3.9-11-9-13.5c-3.2,4.3-5.1,17.8-3,22.4c0,0.5,0,1,0,1.5c1,4.7-0.2,6.1,1.5,7.5
		c-1.1,2.7-2.7,0.2-4.5,0c0-0.5,0-1,0-1.5c-2.4-5.6-4.2-11.8-6-18c0-0.5,0-1,0-1.5c0.5-12.7-7.8-21.4-9-31.4
		c-0.5-4.3,2.3-9.1,1.5-13.5c-2.9-14.9-15.8-16.7-19.4-26.9c-3.6-10.1-15.6-8.2-18-19.4c-3.1,3.2-5.1,0.1-6-3
		c-1.8,0.2-1.3,2.7-1.5,4.5c-8.9-5.1-9.3-18.7-9-29.9c-6.1,2.4-8.2-3.4-12-10.5c-8.9,3.9-9.7-5.2-12-12c-11.1,1.1-14.6-5.4-22.4-7.5
		c-0.6-3.6,2.7-3.3,1.5-7.5c-4.4,5.1-8.8,10.2-18,10.5c-2.5,3.7-3.2,12.1,1.5,18c-21.3,2.4-13.7,21.2-12,34.4
		c-2.7,0.2-3.2-1.8-6-1.5c-2.8,2.8-0.2,3.8,0,7.5c-6.3,0.7-9.9,4-12,9c-0.8,5.3,5.3,3.7,4.5,9c-3.9,1.5-8.7,2.2-10.5,6
		c4.6,0.4,3,7,9,6c-2.8,14.6-28.4,6.5-29.9,22.4c0.9,3.6,9.2-0.2,10.5,3c0.7,3.2-2.1,2.8-4.5,3c2.7,4.8,6.1,8.9,13.5,9
		c0.9,6.8,1.4,7.3,3,15c-5.2,1.8-6.7,7.3-9,12c3.8,4.2,1.8,14.2,10.5,13.5c-1.2,4.2,2.1,3.9,1.5,7.5c-1.7-0.2-2.7,0.3-3,1.5
		c-5.6-6.3-8.6,3-13.5-3c-3.3,12.3,8.6,22.4,19.4,25.4c0.2,4.2-3.7,4.3-7.5,4.5c-0.3,2,1.8,6.8-3,10.5c3.2,2.8,5.5,6.4,6,12
		L416.8,376.6z M352.2,221.9c-3.8,0.4-7,7.9-1.5,9c1.8-5.2,10.2-3.7,13.5-7.5c1.4-8.5,4.9-15,12-18c0.7-4.7-2.7-5.3-1.5-10.5
		c-4,0-8,0-12,0c1,5-2.5,5.5-6,6c-3.2-4.4,1.5-7.4-3-10.5c-1.5,0-3,0-4.5,0C342.2,199.6,341.1,216.7,352.2,221.9z M316.3,212.9
		c5.9,1.6,12.5,2.5,18,4.5c0-3.5,0-7,0-10.5c-3.6-2.9-8.5-4.4-15-4.5C317.3,205,315.4,207.5,316.3,212.9z"/>
	<path class="st10" d="M424.4,118.7c-12.8-10-44.8-25.3-51.9-32.8c-23.2-24.3,18.7,6.9,75.6,24.8c26.5,8.4-29.8-40.4,34.4-5.2
		c24.9-5.5-42.3-47.1,38.4-8.6c20.2,9.7-38.4-43.1,33.7-8.7c31.8,15.2,55.7,31.6,56.5,32c0,2.5,0,5,0,7.5c-3.5-0.5-5.7,0.2-7.5,1.5
		c3.8,3.2,5.9,8.1,13.5,7.5c-4.8,5.6,7,9.2,0,13.5c11,1.6,14.3,9.7,16.5,16.5c6.6-0.8,4.9-0.5,10.5-1.5c2.9,3.1,1.1,9.9,0,13.5
		c-4.3-0.2-2.7-6.2-3-10.5c-2.9,2.1-0.8,9.2-3,12c-4.7,0.7-4-4-7.5-4.5c-6.5,3-5.7,13.2-15,13.5c10.1-16.1-19.1-33.8-3-44.9
		c-2.6-8.3-10.9-10.5-19.4-6c-1.1,4.6,2.6,4.4,1.5,9c7.6-4.9,5.3,6.1,9,3c0.4,2.1,1.6,8.4,1.5,15c-4.1,1.1-3-3-6-3
		c8.6,8.7-13.2,31.3,7.5,37.4c-2.6,11.2,1.6,19.9-1.5,29.9c-15-10-14.5-35.3-19.4-55.4c-0.5-3.2-4.6,2.1-6,3c-2.5-4.5-4.3-9.7-6-15
		c-3.3,24.8,8.9,32.8,9,55.4c13.1,10.5,16.4,22.4,16.5,40.4c-2.9-0.6-5.4,1-3,1.5c-0.2,2.9-5.6-1.2-7.5-1.5c0-0.5,0-1,0-1.5
		c2.8,2.9,5.5,0.5,9,0c-2-16.9-2.1-30.7-18-35.9c-1.9,9.4,5.2,9.7,7.5,15c-5.8,1.3-2.4-6.5-9-4.5c-0.7,3.2,2.1,2.8,4.5,3
		c-0.5,5.5-3.7,8.3-4.5,13.5c1.7,5.2,6.1,7.8,7.5,13.5c-7.2-5.3-9.3-15.7-15-22.4c3.8-4.9,6.2-6.8,0-7.5c3.2-5.2,5.6-11.3,9-16.5
		c-7.7-1.3-1.1-16.8-12-15c-3.7,3.7,1.1,6.5,0,12c-4-4.1-3.8,1.2-6,3c-9.9-16.4,0.1-37.1-13.5-47.9c-2.6,4.8-6.3,1.2-9-1.5
		C543.7,151.4,438.7,129.8,424.4,118.7z M560.2,151.6c0.9-3.6,6.5-2.5,4.5-9c-1.5,0-3,0-4.5,0C562.3,146.9,556.1,150.2,560.2,151.6z
		 M569.2,168c2-5.5-1.6-13-4.5-18C563.1,154,564.1,166.1,569.2,168z"/>
	<path class="st10" d="M617.1,305.7c4.3,4.5,14.4,18.1,9,22.4c-2.6-1.4-5.2-2.8-4.5-7.5c4.8-3.9-5.7-5.2-4.5-10.5
		C619.4,309.8,618.1,306.9,617.1,305.7z"/>
	<path class="st10" d="M609.6,305.7c1.3,0.7,2.7,1.3,3,3c-1.4,1.6-5.5,0.5-4.5,4.5c-1.6-0.4-1-3-3-3
		C603.3,299.4,613.6,314.2,609.6,305.7z"/>
	<path class="st5" d="M576.7,329.6c3.9-5.3,17.2-10.6,20.9-3c-2.5-6.9-3-21.5,7.5-15c0-0.5,0-1,0-1.5c2,0,1.4,2.6,3,3
		c-1-4,3.1-2.9,4.5-4.5c-4.5,7.2,4.7,6.4,3,15c-7.2,1.6-12.1-2.5-12,7.5c2.9-0.6,1.2-5.8,6-4.5c-3.7,8.7,2.8,6.4,4.5,12
		c-1.2-0.3-1.5-1.5-3-1.5c1.6,2,1.9,12.9,6,7.5c4.3,3-0.5,9.3,0,13.5c-6.3,0.3-4.2-7.8-7.5-10.5c-4.9,3.6,0.4,17.4-6,19.4
		c0.7-10.9-3.5-15.3-10.5-15c-0.7-5.1,0.6-8.4,1.5-12c-6.3-1.2-10.4-2.6-15-10.5c-1.2,0.3-1.5,1.5-3,1.5
		C576.7,330.6,576.7,330.1,576.7,329.6z"/>
	<path class="st9" d="M567.7,325.1c0.1-2.4,3.1-2.9,6-6c0.4-6.9-6.8-6.2-6-13.5c3.1,0.9,4.8,3.1,7.5,4.5c1.2-0.8,2.4-1.6,4.5-1.5
		c-0.4-1.9-3-1.5-3,0c-2.7-1.1-0.2-2.7,0-4.5c1.8,0.2,3.4,2.7,4.5,0c-1.7-1.4-0.5-2.8-1.5-7.5c3.6,5.9,3.7,15.2,9,19.4
		c-8,0.9-7.2-9.3-15-4.5c-1.3,5.8,3.7,5.3,4.5,9c-3.5,2.5-6.5,5.5-9,9c2,1.9,5.5,1.9,7.5,0c0,0.5,0,1,0,1.5c-3.2,3.2-8.1,0.6-9-3
		c-0.2-1.8-2.7-1.3-4.5-1.5"/>
	<path class="st9" d="M591.6,286.2c-3.5-0.5-0.9-7.1-6-6c-5,12.5,8.7,19.2,13.5,26.9c2-0.5,1.2-3.7,1.5-6c2.6,0.4,3.4,2.6,3,6
		c-1.9,0.1-2.1,1.9-4.5,1.5c-3.4-1.6-4.4-5.6-7.5-7.5c-2.1,7.9,1.8,9.7,0,13.5c-6.4-3.3-4.5-26.6-12-19.4c-2.1-4.6-0.2-18.1,3-22.4
		C587.7,275.2,591.2,279.2,591.6,286.2z"/>
	<path class="st14" d="M591.6,286.2c1.5,6.5,7.7,8.3,9,15c-0.3,2.2,0.5,5.5-1.5,6c-4.8-7.7-18.5-14.4-13.5-26.9
		C590.7,279.1,588.1,285.8,591.6,286.2z"/>
	<path class="st9" d="M570.7,284.7c1.8,6.2,3.6,12.4,6,18C573.2,298.2,569.4,294,570.7,284.7z"/>
	<path class="st5" d="M588.6,256.3c0,0.5,0,1,0,1.5c1.9,0.3,7.3,4.3,7.5,1.5c-2.4-0.5,0.1-2.1,3-1.5c-0.1-18-3.3-29.9-16.5-40.4
		c-0.1-22.6-12.3-30.6-9-55.4c1.7,5.3,3.5,10.5,6,15c1.4-0.9,5.5-6.2,6-3c4.9,20,4.5,45.4,19.4,55.4c3.1-10-1.1-18.8,1.5-29.9
		c-20.7-6.1,1.1-28.7-7.5-37.4c3,0,1.9,4.1,6,3c0.1-6.6-1.1-12.9-1.5-15c-3.7,3.1-1.4-7.9-9-3c1.1-4.6-2.6-4.4-1.5-9
		c8.5-4.5,16.8-2.3,19.4,6c-16.1,11.1,13.1,28.8,3,44.9c9.3-0.2,8.5-10.5,15-13.5c3.5,0.5,2.8,5.2,7.5,4.5c2.2-2.8,0.1-9.9,3-12
		c0.3,4.2-1.3,10.3,3,10.5c1.1-3.5,2.9-10.3,0-13.5c-5.6,1-3.9,0.7-10.5,1.5c-2.2-6.7-5.4-14.9-16.5-16.5c7-4.3-4.8-7.8,0-13.5
		c-7.6,0.6-9.7-4.3-13.5-7.5c1.7-1.3,4-2,7.5-1.5c0-2.5,0-5,0-7.5c-2.2-0.8-7.7,1.7-7.5-1.5c18,0,35.9,0,53.9,0c0,0.5,0,1,0,1.5
		c1.5,17.6-15.2,32.5-6,47.9c5.2-3.7-4-10.6,0-13.5c2.6-0.1,3.9,1.1,4.5,3c5.6-3.5,7.2-12.5,3-18c2.9,0.6,2.7,4.3,7.5,3
		c-1.3,11-5.2,19.1,1.5,26.9c-4.1,3.9-6.7,9.3-6,18c5.9,0.5,8.1-2.9,7.5-9c6.7,0.3,11.8,2.2,15,6c2.3-6.2,8.8-8.2,9-16.5
		c6.2,10.2-4.8,27.7-7.5,38.9c-2.2-0.8-3.7,5.8-4.5,1.5c-0.9-5.6-2.8-10.1-7.5-12c-5.1,12.8-6.6,29.3-12,41.9
		c-1.4,1.1-2.3,2.7-3,4.5c-2,0-4,0-6,0c-1.3-4.8,2.3-4.7,4.5-6c-1.5-10.5,1.8-16.2,3-23.9c-3.4-0.6-2-6-4.5-7.5
		c-4.9,9.7-4.6,7.7-9,18c2.7,4,5.1,0.3,7.5,3c-1.7,7.5-13,12.7-3,19.4c-1.3,2.7-4.2,3.8-3,9c-4.4,2.4-7.4,0.8-10.5,0
		c0-1.5,1.8-1.2,3-1.5c-1.1-1.4-2.7-2.3-4.5-3c-2.6,1.4-3.3,4.7-3,9c1.2,5.3,1.7,11.3,7.5,12c0,0.5,0,1,0,1.5c-8.1,1.7,2.8,6.1,0,12
		c0.6,3.1-1,4-1.5,6c-4.5,2.2,3.3,4.5,4.5,6c3.5-0.5,0.9-7.1,6-6c0.7,1.3,1.3,2.7,3,3c0,1.5,0,3,0,4.5c-2.9,1.1-2.2,11.1,1.5,10.5
		c1.9,5.5,4.2,8.9,1.5,13.5c-1.1-4.4-1.7-9.3-4.5-12c-4.7,0.3-7.9,6.6-12,3c-1.5-4.5,3.3-2.7,6-3c0-3.5-2.6-4.4-1.5-9
		c-2,1.5-3,4-4.5,6c-5.5-4.8-3.1-9-4.5-16.5c-2.8,6.7-2.3,13.8-1.5,20.9c-11.7-3.4-0.1,15.2-4.5,20.9c-1.4-1.1-2.3-2.7-3-4.5
		c5.5-4.4-4.7-18-9-22.4c-2.6-3.2-3.4-4.4-1.5-9c-15.3-6.7-26.2-17.7-29.9-35.9c-1.3-5.6-5.7-8.2-7.5-13.5c0.8-5.2,4-8,4.5-13.5
		c-2.4-0.1-5.2,0.2-4.5-3c6.5-2,3.2,5.8,9,4.5C590.1,242,590.2,248.5,588.6,256.3z M615.6,247.3c5.5,11.2-6.3,22.9,3,31.4
		c-1.2-6.7,1-9.9,3-13.5c5.4-0.1,6.1-12.8,3-16.5c0-1,0-2,0-3c-1.5-2-1.5-5.5-3-7.5c-5.2,1.2-6.3-2.8-9,0
		C612.7,242.2,613.4,245.5,615.6,247.3z M626,298.2c0-2,0-4,0-6c-2,0-4,0-6,0C620.2,296,622.2,298,626,298.2z M620.1,305.7
		c2,0,4,0,6,0C628,298,618.7,298.7,620.1,305.7z"/>
	<path class="st4" d="M657.5,120.2c6.6,2.8-2.2,10.2-1.5,16.5c3.4,3.1,9.9,3.1,13.5,6c-2.7,9.6-4.7,19.7,1.5,26.9
		c-3.3,3.7-6.3,7.7-7.5,13.5c5.4,1.4,1.5-6.5,4.5-7.5c10.7,5.5,11.1-8.7,19.4-1.5c5.9-2.1,1.8-14.2,3-20.9c4.5,4,8.4,8.6,12,13.5
		c-7.7,11.3-6.6,31.3-16.5,40.4c2.7-11.2,13.7-28.7,7.5-38.9c-0.2,8.3-6.7,10.2-9,16.5c-3.1-3.8-8.3-5.7-15-6c0.6,6.1-1.5,9.4-7.5,9
		c-0.7-8.7,1.9-14.1,6-18c-6.7-7.8-2.8-16-1.5-26.9c-4.8,1.3-4.6-2.4-7.5-3c4.2,5.5,2.6,14.4-3,18c-0.6-1.9-1.9-3.1-4.5-3
		c-4,2.8,5.2,9.8,0,13.5C642.3,152.7,659,137.8,657.5,120.2z M654.5,153.1c3.7,1.1,6.3-6.4,3-7.5
		C655.8,147.4,653.2,148.3,654.5,153.1z"/>
	<path class="st4" d="M653,242.8c2,0,4,0,6,0c0.5,0,1,0,1.5,0c-3.8-5.5-16.2,19.9-6,28.4c8,4.1,6.6-16.9,9-4.5c-1,4.8-7,9.8-12,6
		c-6.3-7,0.2-10.3-3-18c-1.2-5.2,1.7-6.3,3-9C651.8,244.6,653,244.3,653,242.8z"/>
	<path class="st10" d="M633.5,259.3c-0.3-4.3,0.4-7.6,3-9c1.8,0.7,3.4,1.6,4.5,3c-1.2,0.3-3,0-3,1.5c3.1,0.8,6.1,2.4,10.5,0
		c3.2,7.7-3.3,11,3,18c0.3,1.2,1.5,1.5,1.5,3c-5.9-7-11.3-14.6-16.5-22.4C632.5,252.3,637.6,260.4,633.5,259.3z"/>
	<path class="st10" d="M641,272.8c-0.8,1.2-1.6,2.4-1.5,4.5c1.5,0,1.2-1.8,1.5-3c3.2,2.8,7.2,4.7,7.5,10.5c-2.6-1.3-4.6-5-6,0
		c-0.5,0-1,0-1.5,0C643.8,278.8,632.9,274.5,641,272.8z"/>
	<path class="st10" d="M639.5,290.7c2.8,7.8,7.2,1.9,7.5-4.5c5.4-1.4,1.3,6.7,6,6c0,0.5,0,1,0,1.5c-1.7-0.3-2.3-1.7-3-3
		c-5.1-1.1-2.5,5.5-6,6C642.8,295.2,635,293,639.5,290.7z"/>
	<path class="st10" d="M653,298.2c3.8,3.2-1.3,8.4,1.5,10.5C650.7,309.3,650,299.3,653,298.2z"/>
	<path class="st13" d="M650,429.9"/>
	<path class="st4" d="M594.6,419.4c1.4-4.9,0.9-11.7,7.5-7.5c-0.7-5.2-0.1-9,3-12c-4.2,6.3,3.7-1,4.5,3c-3.1,0.8-3.2,2.3-1.5,4.5
		c-1.1,1.4-2.7,2.3-4.5,3c0.2,3.3,6.3,0.6,9,1.5c0,0.5,0,1,0,1.5c1.1,4.1-7.1-1.1-6,3c2,3.9,10.4-0.9,10.5,1.5
		c-5.1,1.3-6.5,6.5-13.5,6c-0.3,1.3,0.6,1.4,1.5,1.5c4.7,2.1,0.9,4.6-1.5,7.5c-0.6-2.6,2.2-3.8,0-4.5c-1.1-2.7-2.7-0.2-4.5,0
		c0.5-3.9-3.1-3.9-6-4.5c-2.8,2.5-5.6-8.2-16.5-6"/>
	<path class="st10" d="M617.1,417.9c1.5,5.3-4.2,8.2-12,7.5c-0.9-0.1-1.8-0.2-1.5-1.5C610.6,424.4,611.9,419.2,617.1,417.9z"/>
	<path class="st4" d="M567.7,328.1c0.8,3.5,5.8,6.2,9,3c1.5,0,1.8-1.2,3-1.5c4.6,7.9,8.7,9.3,15,10.5c-0.9,3.6-2.2,6.8-1.5,12
		c7-0.4,11.1,4.1,10.5,15c6.4-2.1,1.1-15.9,6-19.4c3.3,2.7,1.2,10.8,7.5,10.5c-0.5-4.1,4.3-10.5,0-13.5c0.4-3.4-0.4-5.6-3-6
		c-1.7-5.6-8.2-3.2-4.5-12c-4.8-1.3-3.1,3.9-6,4.5c-0.1-9.9,4.7-5.9,12-7.5c1.7-8.5-7.5-7.8-3-15c-0.3-1.7-1.7-2.3-3-3
		c1.3-8,5.6,2.1,6,4.5c-0.3,1.2-1.5,1.5-1.5,3c1.8,2.2,5.7,2.3,7.5,4.5c0,1,0,2,0,3c-0.7,4.7,1.9,6.1,4.5,7.5c0.7,1.8,1.6,3.4,3,4.5
		c4.4-5.8-7.3-24.4,4.5-20.9c-0.8-7.2-1.4-14.2,1.5-20.9c1.4,7.5-1,11.6,4.5,16.5c1.5-2,2.5-4.5,4.5-6c-1.1,4.6,1.5,5.5,1.5,9
		c-2.7,0.3-7.5-1.5-6,3c4.1,3.6,7.3-2.7,12-3c2.8,2.7,3.4,7.6,4.5,12c2,2.5-1.2,8.7,0,15c-3.4,3.1-5.3,7.7-7.5,12
		c-0.9,1.3-1.8,2.7,0,3c-0.6,2.8-3.2,3.8-3,7.5c4.2-0.3,6.4-2.6,6-7.5c1.5,0,1.2,1.8,1.5,3c0,2.5,0,5,0,7.5c4,8-5.5,14.1-3,25.4
		c4,6.2-1.8,0.9-1.5,6c0,1,0,2,0,3c-2,0-1.4,2.6-3,3c0.3-1.3-0.6-1.4-1.5-1.5c3.8-8.2,6.2-25.7,4.5-34.4c-5.4,4.8-8.7-9.7-16.5-7.5
		c0-1.5,0-3,0-4.5c9.3,4,5.6-5.3,12,0c-2.2-5-4.5-4.3-4.5-9c-4.1,2.7-12.5,2.8-15,3c3.4,1.1,0.6,8.4,1.5,12c-3.5-0.5-3.3-4.6-6-6
		c-1.5,6,4.5,4.5,3,10.5c-2,4-3.2,8.8-10.5,7.5c-0.9-2.6,1.8-8.8-1.5-9c-3.9,5.8-5.5,15.8-6,20.9c-4.1,1.1,1.1-7.1-3-6
		c-0.4,4.8-10.7,4.4-7.5-3c-5.2,10.5-18.7,12.2-26.9,6c-3.7,3.5,2.2,2.8,1.5,7.5 M567.7,334.1 M578.2,368.5c1.2-3.3,3.1-5.8,3-10.5
		c3.1,3,2.9-0.7,6-1.5c-2.7-3.8,2.1-16.1-6-18c-1.4,1.1-2.3,2.7-3,4.5c-2.6,1.3-4.4,3.6-7.5,4.5 M572.2,379c4.2-1.2,3.9,2.1,7.5,1.5
		c1.3-1.7,2-4,1.5-7.5C575.7,372.5,573.5,375.3,572.2,379z"/>
	<path class="st4" d="M664.9,266.8c0.2-1.8-0.3-4.2,1.5-4.5c6.5,2.5,1,12.3,1.5,18c10,1.4,11.4-10,19.4-6
		c4.7,5.9-12.3,49.7-13.5,49.4c-1.3,0.3-1.4-0.6-1.5-1.5c0.3-1.3-0.6-1.4-1.5-1.5c0-1,0-2,0-3c-2.4-14.4,4.9-19,10.5-25.4
		c1.6-5.6-3.7-4.3-3-9c4.7,0.7,6.1-1.9,7.5-4.5c-5.1-8.4-14.4,12.5-22.4,1.5C663.9,275.7,669,271.3,664.9,266.8z"/>
	<path class="st9" d="M570.7,347.6c0,1.5,1.8,1.2,3,1.5 M415.1,362.5c-0.4-5.5-2.8-10.7-6-13.5c4.8-3.7,2.7-8.4,3-10.5
		c3.8-0.2,7.7-0.3,7.5-4.5c-10.9-3.1-22.7-13.1-19.4-25.4c4.9,6,7.9-3.3,13.5,3c0.3-1.2,1.3-1.7,3-1.5c0.6-3.6-2.7-3.3-1.5-7.5
		c-8.7,0.7-6.7-9.3-10.5-13.5c2.3-4.7,3.8-10.2,9-12c-1.6-7.7-2.1-8.2-3-15c-7.4-0.1-10.8-4.2-13.5-9c2.4-0.1,5.2,0.2,4.5-3
		c-1.3-3.2-9.5,0.6-10.5-3c1.5-16,27.1-7.8,29.9-22.4c-6,1-4.4-5.6-9-6c1.7-3.7,6.5-4.4,10.5-6c0.8-5.3-5.3-3.7-4.5-9
		c2.1-4.9,5.7-8.2,12-9c-0.2-3.7-2.8-4.6,0-7.5c2.8-0.3,3.3,1.7,6,1.5c-1.7-13.2-9.3-32,12-34.4c-4.7-5.8-4-14.2-1.5-18
		c9.2-0.3,13.5-5.4,18-10.5c1.2,4.2-2.1,3.9-1.5,7.5c7.9,2.1,11.3,8.6,22.4,7.5c2.3,6.8,3.1,15.8,12,12c3.8,7,5.8,12.8,12,10.5
		c-0.3,11.2,0.1,24.8,9,29.9c0.2-1.8-0.3-4.2,1.5-4.5c0.9,3.1,2.9,6.2,6,3c2.3,11.2,14.3,9.3,18,19.4c3.7,10.3,16.5,12,19.4,26.9
		c0.9,4.3-2,9.1-1.5,13.5c1.2,10,9.5,18.8,9,31.4c-10.1-13.3-9.8-37.1-19.4-50.9c-5.3,8.9,4.8,16.1,0,28.4
		c-6.8-7.1-13.7-14.2-20.9-20.9c-3.4,1.1-0.6,8.4-1.5,12c-5.1,0.1-0.9-9.1-6-9c10.6-6.2-1.9-23.8-15-26.9c0.3-16.9,2-18.5-15-16.5
		c-5.4-9.9,1.9-26-7.5-34.4c-4.8,5.5-16.8-5.6-16.5,4.5c-2.9-2.1-4.6-5.4-9-6c-6.2,6.8-19.1,11.4-9,19.4c-1.5,1.5-3,3-4.5,4.5
		c9,15.9-5.9,27.9-1.5,43.4c-5.1-3.7-13.4-4.3-12,6c-0.6,3.6,6.8-0.8,4.5,4.5c-7.9-4.8-5.5,7.9-15,6c-1.1,4.6,4.1,2.9,3,7.5
		c-9.9-3.4-0.6,3.2-10.5,3c7.9,10.8,16.2,17.7,19.4,29.9c-3.1,7.1,6.6,22.8-6,19.4c8.4,5.3,2.4,19.3,0,26.9c1.7-0.2,2.7,0.3,3,1.5
		c5-1.4,79.5,15.8,82.3,13.2c0,0-19.3,41-34.4,42.9C469.9,392.9,415.1,362.5,415.1,362.5z M433,195c9.3-0.6-1.4,3.2,3,6
		c4.9,1.1,9.1-11.6,3-12C440.5,194.4,432.3,190.2,433,195z M422.6,278.8c3.9,0.5,4.9-2.1,4.5-6C423,272.9,419.9,276.2,422.6,278.8z
		 M412.1,280.3c1.2,5.2-2.8,6.3,0,9c4.6-1,2.9-1,7.5,0c-0.2-3.7,2.4-4.6,3-7.5c-3,0-1.9-4.1-6-3
		C416.3,280.5,414.2,280.4,412.1,280.3z"/>
	<path class="st14" d="M457,340.9c-15,2.2-20.4-6.6-25.4-5.3c-0.3-1.2-1.3-1.7-3-1.5c2.4-7.7,8.4-21.7,0-26.9
		c12.6,3.3,2.9-12.3,6-19.4c-3.3-12.2-11.6-19.1-19.4-29.9c9.9,0.2,0.6-6.4,10.5-3c1.1-4.6-4.1-2.9-3-7.5c9.4,2,0.2-9.1,8.2-4.3
		c0.8-6.2,1.5-4.4,2.1-8c-1.4-10.3,4.3-11.6,9.4-7.9c-4.4-15.5,13.3-23.8,4.2-39.6c1.5-1.5,3-3,4.5-4.5c-10.1-8,2.7-12.6,9-19.4
		c4.4,0.6,6.1,3.9,9,6c-0.3-10.1,11.7,1,16.5-4.5c9.4,8.4,2.1,24.5,7.5,34.4c17-2.1,15.3-0.5,15,16.5c13.1,3.2,25.6,20.8,15,26.9
		c5.1-0.1,4.1-1.9,7.5-3c7.3,6.7,9.6,9.3,16.5,16.5c7.4-19,0.7-13.6,6-22.4c9.7,13.8,7.8,36.1,18,49.4c0,0.5,0,1,0,1.5
		c-1.3,9.3,2.5,13.5,6,18c0,0.5,0,1,0,1.5c-0.2,1.8-2.7,3.4,0,4.5c0-1.5,2.6-1.9,3,0c-2.1-0.1-3.3,0.7-4.5,1.5
		c-2.6-1.3-4.4-3.6-7.5-4.5c-0.8,7.3-5.6,9.6-6,16.5c-1.4,1.5,11,31.8-7,53.9c-24.6,30.2-19.9,78.1-19.9,79.3
		c0,0-36.2-30.4-46.1-37.4c-8.2-5.8-19-59.8-19-59.8l6-22.4C475.7,335.6,473.6,338.4,457,340.9z M451,177c3.8-0.2,5.8-2.2,6-6
		c-2.5,0-5,0-7.5,0C449.4,173.6,449.8,175.7,451,177z M513.8,295.2c-5.1-1.7,0.6-14.2-6-12.7c-5.9-9.5-15.1-15.5-25.4-15.7"/>
	<path class="st6" d="M573.7,349.1c-1.2-0.3-3,0-3-1.5c3.1-0.9,4.8-3.1,7.5-4.5c6.1,4.9-5.4,10.4,0,15c0,1.5,0,3,0,4.5"/>
	<path class="st4" d="M238.5,142.6c1.3,3.1-3.9,6.7-4.5,3c-1.5,1-1.5,3.4-4.5,3c-0.2-3.7-2.8-4.6,0-7.5c3.3-0.8,2.1,2.9,4.5,3
		C235.3,143.3,236.5,142.5,238.5,142.6z"/>
	<path class="st7" d="M709.8,147.1"/>
	<path class="st4" d="M91.2,227.3c6.4-4.3,10.7,6.2,10.5,13.5c-4.7,1.7-3.4,0.1-9,0C93.9,234.6,99.1,226.4,91.2,227.3z"/>
	<path class="st10" d="M154.8,235.4c-4.3-3.9,7.4-4.5,7.5-9c3.1,6.4,10.4,8.5,18,10.5c0.1,3.2-14-0.2-7.5,4.5
		C169.9,243.2,161.3,225.1,154.8,235.4z"/>
	<path class="st10" d="M621.6,265.3c3.9-2.6,3-9.9,3-16.5C627.6,252.5,627,265.2,621.6,265.3z"/>
	<path class="st12" d="M250.5,319.2"/>
	<path class="st5" d="M653,275.8c0-1.5-1.2-1.8-1.5-3c4.9,3.9,11-1.2,12-6c0.5,0,1,0,1.5,0c4.1,4.5-1,8.9-1.5,13.5
		c8.1,11,17.3-9.9,22.4-1.5c-1.4,2.6-2.8,5.2-7.5,4.5c-0.7,4.7,4.6,3.4,3,9c-5.6,6.4-12.9,11-10.5,25.4c-3.3-0.2-0.6-6.3-1.5-9
		c-2.8,0.2-5,1-6,3c-1.2-0.3-1.5-1.5-3-1.5C659.7,295.8,661.1,284.3,653,275.8z"/>
	<path class="st6" d="M633.5,259.3c4.1,1.1-1.1-7.1,3-6c5.2,7.8,10.5,15.4,16.5,22.4c8.1,8.6,6.7,20,7.5,34.4c1.5,0,1.8,1.2,3,1.5
		c5.6-0.1,3.5,7.5,7.5,9c0.9,0.1,1.8,0.2,1.5,1.5c-1,9-5.5,22.4-6,26.9c-0.3,4.2-6.3,1.2-6,9c1.5-13.9,1.4-30.1,1.5-44.9
		c-7.4,4.2,2.6,19.3-6,23.9c-1.2-6.2,2-12.5,0-15c2.7-4.6,0.4-8-1.5-13.5c-2.7-2.1,2.3-7.3-1.5-10.5c0-1.5,0-3,0-4.5
		c0-0.5,0-1,0-1.5c-4.7,0.7-0.6-7.4-6-6c-0.3,6.4-4.7,12.3-7.5,4.5c0.5-2,2.1-2.9,1.5-6c0.5,0,1,0,1.5,0c1.4-5,3.3-1.3,6,0
		c-0.2-5.7-4.3-7.7-7.5-10.5c-0.3,1.2,0,3-1.5,3c-0.1-2.1,0.7-3.3,1.5-4.5c0-0.5,0-1,0-1.5C635.2,270.6,634.7,264.6,633.5,259.3z"/>
	<path class="st10" d="M670.9,320.6c-4-1.5-1.9-9.1-7.5-9c1-2,3.2-2.8,6-3c0.9,2.6-1.8,8.8,1.5,9
		C670.9,318.7,670.9,319.6,670.9,320.6z"/>
	<path class="st10" d="M666.4,349.1c0.5-4.6,5-17.9,6-26.9c0.1,0.9,0.2,1.8,1.5,1.5c0,1.5,1.2,1.8,1.5,3c-2.3,4.3-5,11-1.5,15
		c0,1.5-1.2,1.8-1.5,3C667.6,343.3,667.7,346.9,666.4,349.1z"/>
	<path class="st12" d="M77,298.2c4.4-1.6,4.4-7.6,12-6C89.7,298.1,79.3,300.4,77,298.2z"/>
	<path class="st9" d="M647.4,349.1c2.2-4.3-2.3-8.9,1.1-12c8.6-4.6,0.8-15.3,8.2-19.4c-0.1,11.2,6.8,15,3.8,40.4
		c-2.1,0.9-0.2,5.8-3,6c-2.4,0.4-2.6-1.4-4.5-1.5c0-2.5,0-5,0-7.5c1.8-0.2,1.3-2.7,1.5-4.5c0.2-2.7-0.5-1.6-0.2-4.5
		C651.5,346.3,650.8,349.5,647.4,349.1z"/>
	<path class="st15" d="M653,355.1c-0.3-1.2,0-3-1.5-3c0.4,4.9-1.8,7.2-6,7.5c-0.2-3.7,2.4-4.6,3-7.5c2.7,0.2,3.2-1.8,6-1.5
		C654.2,352.3,654.7,354.8,653,355.1z"/>
	<path class="st5" d="M579.7,361c0.2-1.7-0.3-2.7-1.5-3c-5.4-4.6,6.1-10,0-15c0.7-1.8,1.6-3.4,3-4.5c8.1,1.8,3.3,14.2,6,18
		c-3.1,0.8-2.9,4.5-6,1.5c0.2,4.6-1.8,7.1-3,10.5"/>
	<path class="st5" d="M615.6,310.2c0.5,0,1,0,1.5,0c-1.2,5.3,9.3,6.6,4.5,10.5c0-1,0-2,0-3c-1.8-2.2-5.7-2.3-7.5-4.5
		C614.1,311.7,615.3,311.4,615.6,310.2z"/>
	<path class="st4" d="M93.4,290.7c0.1,2.1-0.7,3.3-1.5,4.5c-5.5-1.4-2.7,7.9-1.5,9c0,0.5,0,1,0,1.5c-5.3-0.1-6.6-2.9-9,1.5
		c-4.2,0.3-3.5-5.6-7.5-1.5c0-2.5,0-5,0-7.5c1,0,2,0,3,0c2.3,2.2,12.8-0.1,12-6C90.8,292.1,91,290.3,93.4,290.7z"/>
	<path class="st12" d="M74,305.7c4-4.1,3.3,1.8,7.5,1.5c2.4-4.4,3.7-1.6,9-1.5c0-0.5,0-1,0-1.5c1,0,2,0,3,0c0.4,2.1,2.5,2.5,3,4.5
		c-3.6,2.8-12.5,0.4-16.5,3c0,0.5,0,1,0,1.5c-1.3-1.2-3.4-1.6-6-1.5C74,309.7,74,307.7,74,305.7z"/>
	<path class="st10" d="M617.1,344.6c-4.1,5.5-4.4-5.5-6-7.5c1.5,0,1.8,1.2,3,1.5C616.7,339,617.5,341.2,617.1,344.6z"/>
	<path class="st4" d="M180.2,326.6"/>
	<path class="st12" d="M225.1,319.2c1.9-6.2,4.4,0.6,7.5,1.5c0.5,3.5-4.3,1.7-4.5,4.5C223.2,323.6,235.4,318.3,225.1,319.2z"/>
	<path class="st6" d="M567.7,334.1"/>
	<path class="st6" d="M563.2,326.6"/>
	<path class="st4" d="M673.9,341.6c-3.5-4-0.8-10.6,1.5-15c0.4,2.8,2.5-0.8,3,1.5C673.9,329.7,677.1,338.8,673.9,341.6z"/>
	<path class="st10" d="M567.7,334.1"/>
	<path class="st15" d="M563.2,326.6c1.8,0.2,4.2-0.3,4.5,1.5"/>
	<path class="st10" d="M578.2,362.5c0-1.5,0-3,0-4.5c1.2,0.3,1.7,1.3,1.5,3"/>
	<path class="st15" d="M437.5,405.9c2,0.5,2.4,2.6,4.5,3c-1.8,6.1-10.3,1.5-10.5-3C427.7,400.5,438,414.7,437.5,405.9z"/>
	<path class="st4" d="M442,399.9"/>
	<path class="st13" d="M439,425.4c0,2,0,4,0,6"/>
	<path class="st5" d="M431.5,397c2.5-3.9,7.5,2.3,6,7.5c0.6,2.9-6.8,2.2-4.5-1.5c0.1-2.1-0.7-3.3-1.5-4.5
		C431.5,397.9,431.5,397.4,431.5,397z"/>
	<path class="st10" d="M612.6,411.9c-2.6-0.9-8.8,1.8-9-1.5c1.8-0.7,3.4-1.6,4.5-3c1.5,0,3,0,4.5,0c1,1.5,3.4,1.5,3,4.5
		C614.6,411.9,613.6,411.9,612.6,411.9z"/>
	<path class="st15" d="M612.6,407.4c0-0.5,0-1,0-1.5c6.5-0.6,8.3,1.2,6,6c-1.2,0.3-1.5,1.5-3,1.5c-1,0-2,0-3,0c0-0.5,0-1,0-1.5
		c1,0,2,0,3,0C616,409,613.5,408.9,612.6,407.4z"/>
	<path class="st5" d="M576.7,417.9c10.8-2.2,13.7,8.5,16.5,6"/>
	<path class="st5" d="M599.1,428.4c1.8-0.2,3.4-2.7,4.5,0c-1.8,2.2-6.5,1.4-4.5,7.5"/>
	<path class="st10" d="M593.1,423.9c2.9,0.6,6.4,0.5,6,4.5"/>
	<path class="st4" d="M187.5,95.4c17,0,33.9,48,50.9,48c0,0.5,0,1,0,1.5c3.1,0.4,3,4,4.5,6c4.8,0.3,6.3-2.6,12-1.5c0,2,0,4,0,6
		c15,0.5,13.5,9.1,25.4,13.5c-1,4-0.6,9.3-3,12c-3.9-3.5-6.4-4-4.5-10.5c-2,0-4,0-6,0c-1.9,5.9,4.9,3.1,3,9c-4.7,0.7-3.4-4.6-9-3
		c5.5,4.5,8.3,11.7,13.5,16.5c-0.2-3.7-0.3-7.3,3-7.5c-0.3,3.7,2.3,4.7,4.5,6c0.3-2.2-0.5-5.5,1.5-6c8.2-0.2,13.5,7.9,7.5,13.5
		c-2.8,0.3-3.3-1.7-6-1.5c1.3,4.8-4.9,2-4.5,6c5.8-0.3,9.4,1.6,10.5,6c-0.3,1.7-1.7,2.3-3,3c-7.2,1.3-7.6-4.4-12-6
		c1.3,7.8-1.8,11.2-7.5,12c-4.9-1,0-11.9-6-12c-2.2,3.2-2,9-9,7.5c-3.1-4.4-9.7-5.3-18-4.5c-5.4-6.7-7.5-11.6-12-16.5
		c0.6-2.9,6.9-0.1,4.5-6c-4.6,0.4-6.7,3.2-10.5,4.5c-3.4-4.1-6.1-4.3-6-9c-3,0-6,0-9,0c4.9,4.4,5.9,11,0,15
		c5.4,3.1,17.4-0.5,15,10.5c-1.5,0-1.8,1.2-3,1.5c-5.8,0.8-7.3-2.7-13.5-1.5c0.3,4.2,8.7,1.3,10.5,7.5c1,8.5-3.9,11-6,16.5
		c8.2,0.3,2.3,7.9,7.5,9c4.3-5-0.9-11.2,4.5-13.5c8.7,1.3,12.3,7.7,15,15c-3.5-0.5-1.7,4.3-4.5,4.5c-4.1-4.5-10.8,1.1-13.5,3
		c0.5-3.5-0.2-5.7-1.5-7.5c-5.6-3.1-3.9,2.1-10.5,1.5c0,4.1,6.3,7,0,9c-6.9-9.9-16.8-7.8-28.4-12c0.6,22.7-22,6.5-29.9,13.5
		c1.8,0.2,3.5,0.4,3,3c-6.9,2.7-12.3-0.6-18,1.5c0-5.5,7.9-13.1,11.2-9.2c0.7,4.7,8.5-8,9.7-2.8c11.8-1.4,2.7-14.4,7.5-22.4
		c-0.1,4.6,1.4,7.6,4.5,9c4.8-1.6,1.1-11.9,4.5-15c7.7-1.2,2.1,10.9,7.5,12c0.1-7.3,3.4,3.4,6-1.5c-1.4-9.3,2.9-11.6-6-16.5
		c5,1.5,2.3-4.7,3-7.5c-3.4,0.4-5.6-0.4-6-3c1.6-10.3,3.7-17.8,6-23.9c-2.7,0.2-3.5-1.5-3-4.5c-5.8-1.7-5.3,5.3-9,1.5c0-3,0-6,0-9
		c5-1.2,8-1.2,10.5-7.5c-9-1.9-15.2,7.6-20.9,0c2.2-0.8,3.7-2.3,4.5-4.5c-5.5-1.1-6.4,2.6-12,1.5c-0.6-5.9-6.6-6.4-7.5-12
		c1,0,2,0,3,0c0.9,4.1,6.3,3.7,6,9c11.4-3.3,23.3,1.6,31.4,6c2.2-1.9,9.8-21.1,3-36c-8.2-17.9-25.2-17.9-25.2-17.9
		S171.7,97.8,187.5,95.4z M193.5,164.3c-3.7-2.3-2.7-9.3-9-9C185.4,159.5,189.1,168.7,193.5,164.3z M177.1,176.3
		c2.8,4.2,12.4,4.2,12-3C184.5,173.8,177.4,171.7,177.1,176.3z M263.8,185.3c-2,0-4,0-6,0C256.7,191,265,191,263.8,185.3z
		 M247.4,197.3c4.6,2,8.5-4.2,4.5-6c-2.7,6.8-3.2-8.3-6-1.5C249.1,189.5,246.6,195.1,247.4,197.3z M242.9,201.7
		c-1.1-4.4-0.4-10.6-4.5-12C239.5,194.2,238.8,200.3,242.9,201.7z M195,225.7c-7.6,2.9-4.1-2.1-10.5-3
		C182.8,227.9,194.6,232.2,195,225.7z"/>
	<path class="st5" d="M534.8,118.7c8,0,16,0,23.9,0c-3.8,7.9,3.5,13.3,4.5,20.9c-14.3,1.3-30.1-6.5-23.9-19.4
		C537.5,119.9,535,120.4,534.8,118.7z"/>
	<path class="st5" d="M190.7,280.3c-5.9,1.9-3.6-4.4-7.5-4.5c-2.6,1.4-5.8,3.3-3,6c-0.9,0.1-1.8,0.2-1.5,1.5c-3.1-1.8-5.8-4.1-9-6
		c2.7-3.3,7.3-4.6,9-9c2,0,4,0,6,0c-0.1,2.6,0.3,4.7,1.5,6c1.5,0,3,0,4.5,0c0.5,2,2.6,2.4,3,4.5C192.2,278.8,191.9,280,190.7,280.3z
		"/>
	<path class="st12" d="M193.7,278.8c-0.4-2.1-2.5-2.5-3-4.5c2.6,0.1,4.7-0.3,6-1.5c0.2,1.8-0.3,4.2,1.5,4.5
		C197.7,279,192.9,284.9,193.7,278.8z"/>
	<path class="st14" d="M591.6,314.7c0.1,2.8-1.2,3.2-3,1.5c-5.3-4.2-5.4-13.5-9-19.4c0-0.5,0-1,0-1.5
		C587.2,288,585.2,311.4,591.6,314.7z"/>
	<path class="st12" d="M216.1,317.7c0.4-5.2,6.6,2.7,6-1.5C226.6,320.3,217.7,321.8,216.1,317.7z"/>
	<path class="st6" d="M648.5,352.1c-1.8-0.3-0.9-1.7,0-3c3.4,0.5,1.7-4.3,4.5-4.5c-0.3,2.8,1.7,3.3,1.5,6
		C651.6,350.2,651.2,352.3,648.5,352.1z"/>
	<path class="st4" d="M666.4,362.5c-1.7-0.3-0.8-1.5,0-1.5c-6.8-3.8-3.8,15.1-12,15c1.6-3.4,0.9-9,3-12c2.8-0.2,0.9-5.1,3-6
		c-0.3-7.8,5.7-4.8,6-9c1.3-2.2,1.2-5.8,6-4.5c1.7,0.2,2.3-2.2,3,0C670.4,348.6,667.7,354.8,666.4,362.5z"/>
	<path class="st10" d="M666.4,362.5c4.3,9.7-6.4,6.9-4.5,19.4c-5.1-4-5.7,6.5-12,6c-2.5-11.4,7-17.5,3-25.4c1.9,0.1,2.1,1.9,4.5,1.5
		c-2,2.9-1.4,8.5-3,12c8.1,0.1,5.1-18.8,12-15C665.6,361,664.7,362.3,666.4,362.5z"/>
	<path class="st12" d="M344.8,370c2.6-0.1,3.8,1.2,4.5,3c-2.8,0.7-9-2-7.5,3"/>
	<path class="st5" d="M344.8,385c-0.1-1.9-1.9-2.1-1.5-4.5c-0.7-2.4,8.2-2.4,7.5,0C349,381.4,346.8,381.3,344.8,385z"/>
	<path class="st12" d="M416.6,391c6.7-6,9.9,2.1,13.5,4.5c0,0.5,0,1,0,1.5c-1.2-0.3-3,0-3-1.5c-5.3-0.8-3.7,5.3-9,4.5
		C419.2,395.4,416.5,394.5,416.6,391z"/>
	<path class="st5" d="M609.6,402.9c0.7,2.7,1.6-0.6,3-1.5c0,1.5,0,3,0,4.5c0,0.5,0,1,0,1.5c-1.5,0-3,0-4.5,0
		C606.4,405.3,606.5,403.8,609.6,402.9z"/>
	<path class="st12" d="M645.5,399.9c-3.9,3.1-6.4,7.6-10.5,10.5c1-4.6,1-2.9,0-7.5c5.3,0.8,6.6-2.4,9-4.5
		C644.9,398.5,645.8,398.7,645.5,399.9z"/>
	<path class="st15" d="M599.1,435.8"/>
	<path class="st8" d="M650,429.9"/>
	<path class="st5" d="M87.4,118.7c2,0,4,0,6,0c-2.1,4.7,11.1,4.7,9,0c4,0,8,0,12,0c0,0.5,0,1,0,1.5c2,0.8,10.3,6.8,10.5,0
		c0-0.5,0-1,0-1.5c2.5,0,5,0,7.5,0c-3.4,4.1-3.5,11.5-7.5,15c-8.1-4.4-20-9.3-31.4-6C93.7,122.4,88.4,122.7,87.4,118.7z"/>
	<path class="st5" d="M214.6,292.2c-0.2,4.3,0.8,9.8-1.5,12c-11.1-1.1-19.1,0.9-20.9,9c-6.3-6.2,9.1-14.2,10.5-22.4
		C206.2,291.6,209.5,292.9,214.6,292.2z"/>
	<path class="st12" d="M439,431.4"/>
	<path class="st5" d="M74,311.7c2.6-0.1,4.7,0.3,6,1.5c0,1.5,0,3,0,4.5c-2,0-4,0-6,0C74,315.7,74,313.7,74,311.7z"/>
	<path class="st9" d="M349.3,190.5c1.5,0,3,0,4.5,0c4.5,3.1-0.2,6.1,3,10.5c3.5-0.5,7-1,6-6c4,0,8,0,12,0c-1.2,5.2,2.2,5.8,1.5,10.5
		c-7,2.9-10.5,9.4-12,18c-3.2,3.8-11.7,2.3-13.5,7.5c-5.5-1.1-2.3-8.6,1.5-9C341.1,216.7,342.2,199.6,349.3,190.5z"/>
	<path class="st12" d="M180.2,281.7c-2.8-2.6,0.4-4.6,3-6c3.9,0.1,1.6,6.4,7.5,4.5C190,283.6,183.3,280.9,180.2,281.7z"/>
</g>
<path class="st0" d="M628.3,414.2c1.5-2.5,3.6-11.2,3.6-11.2s4.6,5,11.6-9c7-14,11-41.9,11-41.9s-7.6,10-11.3,9
	c-3.7-1,6.3-13,11.3-19c5-6,1-29.9,0-34.9c-1-5-4.1,9-10,6c-5.9-3,0-19,0-19s-13.1,10-12.5,6c0.6-4,17.4-9,12.5-25.9
	c-4.9-17-7.9-8-7.9-8l-9-11c0,0,6-14,0-20.9c-6-7,0-14,0-14s-10.5,9-6.7,14.2c3.7,5.2,7.5,8.2,3.7,14.2c-3.7,6-11.3,9-4.5,20.9
	c6.8,12,10.5,17.2,10.5,17.2s1.5,3-1.5,6.7c-3,3.7-3.7,6.7,0,10.5c3.7,3.7,8.1,9,8.1,9s4.4,6.4,4.4,8.9c0,2.4-2,8.8-4.4,8.6
	c-3.7-0.3-3.6-6.9-6.6-13.3c-3-6.4-5.2-6.4-6.7-13.1c-1.5-6.7,0-12.7,0-12.7s3.4-2.6-3.7-3.7c-7.1-1.1-9.4,1.1-13.8-0.4
	c-4.5-1.5-10.8-6-12-10.5c-1.1-4.5,0.7,12.7,12.7,16.1c12,3.4,10.1,3.7,10.5,7.9c0.4,4.1,4.5,11.2,6.4,13.5
	c1.9,2.2,6.7,13.1,6.7,16.5c0,3.4-2.2,14.6-2.2,14.6s1.1-9-1.1-12.3c-2.2-3.4-5.6-6.4-6.4-9.7c-0.7-3.4-1.9-12.7-6-16.5
	c-4.1-3.7-6.7-5.2-6.7-5.2l4.5,9.7c0,0-1.1,1.9-3,1.5c-1.9-0.4-2.6,4.5-2.6,4.5s-1.9,0.7-1.5-4.9c0.4-5.6,0.4-5.6,0.4-5.6l-4.1-10.5
	l2.4,10.5c0,0,0,1.9-0.4,3.7c-0.4,1.9-1.7,3.2-1.7,3.2s-1.9-3.2-3.6-4.7c-1.7-1.5-4.6-7.1-4.6-7.1s1.8,6.2,3.1,7.9
	c1.3,1.7,4.7,5.6,4.7,5.6l2.6,3.7l5.6,3.7c0,0,0,3-3.4,2.6c-3.4-0.4-9.4-5.9-10.8-8.2s7.9,11.9,9.7,13.1c1.9,1.1,0-1.9,2.6-1.1
	c2.6,0.7,2.6,3.7,3.7,5.6c1.1,1.9,2.2,7.5,2.2,7.5s2.6,10.5,3.4,13.1c0.7,2.6,2.2,6.4,0,9.7c-2.2,3.4-1.9,6.4-4.1,4.5
	c-2.2-1.9-0.7-11.2-0.7-14.6s-1.9-12-4.5-9c-2.6,3-1.5,7.9-1.5,10.5s1.5,13.1,0,14.2c-1.5,1.1-5.2-1.1-5.2-4.9s-5-9-7.4-11.2
	c-2.3-2.2,0.5-6,0-12c-0.5-6,2.5-9.7,2.5-9.7l4.1-0.7l-7.6-3c0,0-13.4-19.1-13.9-2.1c-0.5,17,7,19.9,5.5,30.4
	c-1.5,10.5-12.5,23.4-2.5,43.4c10,19.9,21.4,23.9,29.9,22.4C620.6,421.9,625.8,418.1,628.3,414.2z"/>
<path class="st16" d="M585.6,373c0,0,29-51.6,19.5-63.4c-9.5-11.8-14.5-19.8-17-26.3c-2.5-6.5-14-35.4-14-35.4s-1,19,0,22.4
	c1,3.5-10-13-12.5-19.9s-11.2-25.4-11.2-25.4s-0.4,35-4.4,30.6c-4-4.5-5.7,1.6-5.7,1.6l-1.9,5.2c0,0-4.6,8-5.6,3
	c-1-5-4.6,4.5-4.6,4.5s0.3,1.4-2.7,4.4c-4.1,4.1-6.9-1.4-6.9-1.4l-4.2-6c0,0-0.8,3,1.5,9c2.6,7,7.7,5.4,4.2,9
	c-6.5,6.6-7.2-0.5-14.6-9c-8.9-10.2-31.2-16-25.8-9c28.8,37.5,12,36.7,12,36.7l-3.9-3.3c0,0-1.2-1.9,0.7,7c1.3,5.8-6.3-3.1-6.3-3.1
	l5.6,11.3l-11-9.9c0,0,7,12.4,2.5,7.9c-4.5-4.5-9.6-6.7-8.6-4.7c1,2-55.7-14-60.7-19.4c-5-5.5,26.1,32.4,20.6,37.4
	c-5.5,5-7.7,15,11.4,16.5c20.3,1.6,2.9,4.5,8.9,11c6,6.5,13.2,18.2,17,26.4c3.7,8.3,9.6,36.2,14.5,45.6
	c6.7,13.2,44.9,43.4,57.6,40.4c12.7-3,18.4-22.3,38.2-41.1C596,408.4,585.6,373,585.6,373z"/>
<path class="st10" d="M94.8,84.5l-2.5-8.1h23.3c0,0,12.5,9.4,10.5,18.1c-2,8.8-33.7,14.7-33.7,14.7l11.5-9.9l-18.9,4l12.7-8.8
	l-12.7-1.7L94.8,84.5z"/>
<path class="st16" d="M558.8,351.2c0,0-2.9-7.2-9.8-9.6c-8.7-3-14-0.7-16.4,1.5c-3.8,3.4-2,8.1-2,8.1s8.3-0.2,13.8-0.6
	C549.7,350.1,558.8,351.2,558.8,351.2z"/>
<path class="st16" d="M497.4,350.5c0,0,0-3.5-7-1.5c-7,2-8,4.5-8,4.5l-3,7c0,0,5.3,1,9.3-0.5c4-1.5,4.7-3,7.7-5
	C499.4,353.1,497.4,350.5,497.4,350.5z"/>
<path class="st10" d="M505.8,343.7c-3.9,5.4-17,16.4-17,16.4s-1.7,10.5,0,14.2c1.7,3.7,0.7-7.7,4.2-7.2c3.5,0.5,4-1.9,7.5-2.9
	C503.9,363,505.8,343.7,505.8,343.7z"/>
<path class="st0" d="M476.4,351.2c0,0,2.2-9.5,6-10.3c3.7-0.8,4-3,9.1-2.3c5.1,0.7,10.3,3,10.3,3s-8.3,0-13.1,1.5
	C483.9,344.6,476.4,351.2,476.4,351.2z"/>
<path class="st0" d="M525.7,340.9c0,0,1.6-5.4,7.6-8.3c6-2.9,9-5.2,14.2-4.4c3.1,0.4,11.3,10.5,11.3,10.5s-8.4-6-14.3-4.5
	C538.5,335.6,525.7,340.9,525.7,340.9z"/>
<path class="st0" d="M584.1,496.7c0,0,35.9-3,52.4,0c16.5,3,18,9,18,9s12.7,0,24.3,6c11.6,6,37,35.9,37,35.9s10.5,20.9,13.5,32.9
	c3,12-4.5,31.4,0,47.9c4.5,16.5,23.9,46.4,29.9,68.8c6,22.4,18,53.9,22.4,61.3c4.5,7.5,19.5,24.5,21,35c1.5,10.5,8.9,50.5-12,68.4
	c-20.9,18-35.9,41.7-49.4,46.2c-13.5,4.5-6,18-23.9,23.9c-18,6-53.9,9-67.3,0c-13.5-9-18-12-18-25.4c0-13.5,0-52.4,13.5-50.9
	c13.5,1.5,6.7,6.1,6.7,6.1s-0.7-12.1,9.7-7.6c10.5,4.5,0.3,22.4,9.9,22.4c9.6,0,26-6,31.2-3c5.3,3,21.2-40.4,21.2-50.9
	c0-10.5-7-17.9-10-29.9c-1.7-6.7-1.8-24.1-1.8-24.1s-6.5-6-9.4-7.3c-6.7-3-17.9-43.4-24.3-53.9c-6.4-10.5-30.3-56.9-30.3-56.9
	s-50.9,11.8-77.8,23.1C543.7,685.2,584.1,496.7,584.1,496.7z"/>
<path class="st17" d="M505.8,610.9c-12.7-7.9-20.1-41.5-27.6-31.2c-12,16.3-12.4,33.7-24.6,32.4c-92.6-10.1-110,66.7-96.9,86.3
	c16.8,25.1,71.3-53.6,88.3,7.3c10,35.9,78.1-25.2,78.3,6.2c0.4,66.9,105.8-16.7,132-42.7c-41.7-59.3-68.3-20.9-97.5-63.3
	C550.1,594.9,540.4,632.3,505.8,610.9z"/>
<path class="st18" d="M352.1,687.2c0,0-0.8,2.1,30.8-10.5c12.2-4.9,38.4-4,48.1-8c15.3-6.2,25.9-17.2,25.9-17.2s-8.1,46.1-32.5,58.1
	c-24.4,12-58.8-1-58.8-1s-8.3-6.7-10.5-10.3C352.1,693.2,352.1,687.2,352.1,687.2z"/>
<path class="st19" d="M357.8,701.6c16.8,25.1,31.8,23.5,48.7,84.4c10,35.9-19.8,70.3-19.6,101.7c0.4,66.9,101.3,17.5,141.6,3.5
	c86.9-30.4,45.1-66.3,63-121.6c14.2-44.1,37.5-74.3,63.6-100.2c11.2-11.2-70.6,64.3-114.6,56.8C487.4,716.9,470,626,470,626
	s-19.4,51.7-53.4,71.7C389.7,713.5,381.9,698.8,357.8,701.6z"/>
<path class="st18" d="M490.3,683.4c0,0,20.5,18.1,38.4,18.1c18,0,51.1-20.2,57.6-29.9c6.5-9.7,21.7-29.2,31.4-30.7
	c9.7-1.5-18,18.7-3,30.3c15,11.6,40.4-1.9,40.4-1.9s-23.5,23.5-33.6,39.5c-10.2,16-23.8,38.3-28.8,46.6c-5,8.2-11.2,24.2-25.2,30.2
	c-5.6,2.4,5.5-46.7-8-57.2c-36.9-0.7-39.9-5.7-50-16C497.4,699.7,490.3,683.4,490.3,683.4z"/>
<path class="st20" d="M528.7,891.1c86.9-30.4,45.1-66.3,63-121.6c14.2-44.1,37.5-74.3,63.6-100.2c11.2-11.2-63.1,67.6-103.2,60
	C498.9,719.3,488.3,905.2,528.7,891.1z"/>
<path class="st21" d="M528.7,891.1c32.7-15.2,14.9-58.7,32.7-114c14.2-44.1,67.7-81.9,93.8-107.8c11.2-11.2-59.2,64.6-103.2,57.1
	c-47.8-8.2-61.1,142.6-34.1,163.3C520.9,891.9,524.7,893,528.7,891.1z"/>
<path class="st22" d="M528.7,891.1c0,0-10.8-41.4,0.1-100.2c3.2-17,11.8-43.4,32.6-52.9c31.7-14.4,77.5-52.6,93.8-68.8
	c11.2-11.2-59.2,64.6-103.2,57.1c-47.8-8.2-61.1,142.6-34.1,163.3C520.9,891.9,528.7,891.1,528.7,891.1z"/>
<path class="st17" d="M545.1,512.2c0,0,18-2.3,27.7-5c9.7-2.6,27-6,33.4-6c6.4,0,22.6,5.5,22.6,5.5s-24.7-3.5-44.7,2.5
	C564.2,515.1,545.1,512.2,545.1,512.2z"/>
<path class="st17" d="M514.5,505.1l-23.1-1.4c0,0-7.5,2.6,0,5.9C498.9,512.8,514.5,505.1,514.5,505.1z"/>
<path class="st17" d="M652,506.1l-12.5,1c0,0,5.4,0.2,7.3,0C648.1,506.9,652,506.1,652,506.1z"/>
<path class="st23" d="M728.2,623c0,0,3.4,12.4,4.8,15.5c1.4,3.1,12.6,25.9,14.5,29.7c1.8,3.8,8.7,21.7,10.4,26.8
	c1.7,5.1,1.6,31.6,0,34.6c-1.6,3-27.5,12-36,10.5c-8.5-1.5-16.7-8.2-18.6-23.5c-1.9-15.4,0.9-38,0-48.4c-0.9-10.4-5-15-5-15
	s18.5-15.4,21.5-19.4C722.8,629.9,728.2,623,728.2,623z"/>
<path class="st24" d="M497.4,557c0,0-25.7,28.5-28.5,40.4c-2.8,11.9,0.4,25.5,0.4,25.5s1.1-10.6,2.6-18.1
	C473.4,597.4,497.4,557,497.4,557z"/>
<path class="st17" d="M729.9,590c0,0-2.9,20.3-8.9,36c-6,15.6-30.3,31.6-30.3,31.6s14.5-8.2,20.1-12.2c6.4-4.6,10.9-5.5,13.9-11.2
	c3-5.7,6.2-0.5,6.2-0.5s-2.4-5.6-2.8-10.6C727.8,618,729.9,590,729.9,590z"/>
<path class="st25" d="M791.1,793.5c0,0-10-4.9-19,0c-9,4.9-25.9,10.4-32.9,20.4c-7,10-15.3,3.5-15.3,3.5s-6.6-13.4-9.1-23.9
	c-1.6-6.7-2.4-25.8-2.4-25.8s-5.6-3.8-9.3-6.1c-5.7-3.5-8-13.3-8-13.3s12.3-18.7,24.2-18.7c12,0,33.9-7.2,33.9-13.1
	c0-5.9,3.2-28.7,0.5-34.7c-2.7-6,14.9,45.2,18.7,55.4c3.8,10.3,24.5,40.3,27.4,48.2s5,25.7,5,25.7L791.1,793.5z"/>
<path class="st17" d="M622,522.6l-6,20.9c0,0-1,10,0,13.5s4,11.5,6,13.5c2,2,8,3,6.8,5c-1.3,2,0.7,7,3.2,8.5
	c2.5,1.5,15,16,17.5,21.4c2.5,5.5,12,24.4,12,24.4l-8.6-16.2c0,0-5.3-10-7.6-13c-2.3-3-8.7-10.8-11.4-12.6c-4.6-3-8.4-8.1-8.6-10.5
	c-0.2-2.5,0.5-1.2,0.5-1.2l-5-2.2l-9-16.2l2-15.2L622,522.6z"/>
<path class="st25" d="M714.3,881.7c0,0,9.4-6,16.7-16.5c7.3-10.5,8-26.2,8-26.2l3.7,8.2c0,0-4.3,15.8-8,19.6
	C728.7,873.2,714.3,881.7,714.3,881.7z"/>
<path class="st25" d="M667.2,876.2c0,0-2.7-3-5.7,0.5c-3,3.5-7,9.3-5,15.4c2,6.1,5,18.1,5,18.1s-4.2-15.4-4.2-21.1
	c0-3.3,3.5-10.8,6.6-12.3C665.6,875.8,667.2,876.2,667.2,876.2z"/>
<path class="st25" d="M652.2,861.9c0,0-5.2,13.3-5.2,18.3c0,5-3.1,22.2-3.1,22.2s2.7,14.1,3.8,0c0.1-1,0.2-21,0.4-21.6
	C649,877.2,652.2,861.9,652.2,861.9z"/>
<path class="st25" d="M698.6,900.4c0,0-2.7-7.8-10.1-7.8c-7.9,0-11.6,4.5-11.6,7.8s-3,8,0,9.8c3,1.8,6.3,2,6.3,2s1.5-2.4,0-4.7
	c-1.5-2.2,0.2-5.1,1.9-7.1C687.1,898.2,698.6,900.4,698.6,900.4z"/>
<path class="st26" d="M790.6,861.9c-20.9,18-35.9,41.7-49.4,46.2c-13.5,4.5-6,18-23.9,23.9c-18,6-53.9,9-67.3,0
	c-13.5-9-13.5-9-13.5-9s7.4-1.5,15.7-2.5c12.7-1.5,30.6,15.1,49.2,10.5c16-4,3.5-8,3.5-8s9.5,3,14.2-3.7c4.5-6.4,3.5-1,13.2-13.7
	c4.9-6.5,13.3-12.9,20.6-18.1c4.8-3.4,5.9,2.5,14.3-12.6c8.6-15.3,3,0,5.5-1.9C787.3,862.4,796.5,856.8,790.6,861.9z"/>
<g>
	<path class="st27" d="M474.7,584.9l3-9.6c0,0,1.1-2.4,1.5-4.1c0.8-3,2.9-8.1,5.1-13.7c1.9-4.7,3-8.1,3-8.1s3-1.2,7.4-4.1
		c5.8,0,13.5,3.8,13.5,3.8s-7.8,17.7-12.3,22.1c-1.7,1.7-5.5,2.9-8.5,4.7C484.1,578,474.7,584.9,474.7,584.9z"/>
	<path class="st28" d="M484.9,564.5l-7.2,10.8c0,0,2.7-5.8,3.4-7.6c0.7-1.7,3.4-5.7,3.2-6.7c-0.2-1,0.5-4,0.5-4s0.9-0.8,2.2-0.8
		c4.5,0,1.7,0.5,1.8,0.5c0,0-0.9,1.8-1.5,3.2C486.5,562.2,484.9,564.5,484.9,564.5z"/>
	<path class="st29" d="M487.9,557.9c2-2.6,3-10.2,3-10.2l3.8-2.3c0,0,0.6-0.1,1,0c1.8,0.1,3.6,0.6,3.6,0.6s-2.1,10-4.3,12.6
		c-3.4,3.9-15.7,23.1-15.7,23.1l-4.4,3.3l1.6-6.2C476.3,578.7,485.5,560.9,487.9,557.9z"/>
</g>
<g>
	<path class="st30" d="M484,395.5c0,0,0.9-11.4,5.6-11.5c2.6,0,3.5,1,3.5,1s3.8-3.4,7.9-3.1c3.5,0.3,11.9,8.6,11.9,8.6
		s-2.6,1.2-7.6,0.7c-5-0.5-8-2.8-11-2.1c-3,0.7-3.2,3.1-4.7,4.2C488.4,394.3,484,395.5,484,395.5z"/>
	<path class="st30" d="M494.3,395.2c2.7-0.2,3.8,1.4,7.2,1.4c3.4,0,5.5-1,7.7-2.1c2.1-1,3.8-3.9,3.8-3.9s-3.4,1.1-5.5,0.9
		c-2.1-0.2-6.6,0.4-9.3,0.3c-2.6,0-5.7,0.3-8.6,1.5c-2.9,1.2-5.6,2.1-5.6,2.1s0,2.1,5.2,2.1C493.1,397.6,494.3,395.2,494.3,395.2z"
		/>
</g>
<path class="st31" d="M228.1,780.1c3.7-0.8,8.5,3.5,8.5,5.4s0,8.9,0,8.9s5,3.5,7.5,6.5c2.5,3,3,10,3,10l-3,2.5l3,3.5
	c0,0,12.5,2,15,3.5c2.5,1.5-14-1-19.9,0c-6,1-13,0.5-11.5-4c1.5-4.5,1.7-13.6,0.1-18C229,794,223.5,781,228.1,780.1z"/>
<path class="st31" d="M178.9,792.1c0,0-1-2-3.4-1.4c-0.6,0.2-1.4,0.9-1.1,2.2c0.5,2.6,2.2,15.3,2.8,17.7c2,7.2,4.8,13.2,8.5,18.1
	c2.8,3.7,5,0.9,8.8,3.3c1.1,0.7,2.7,7.4,4.2,9.7c0.8,1.3,1.7-1.3,2.4-1c10.6,4.5,24.1,4.7,40,0.5c-5.1,3.1-10,6.4-14.7,10
	c40.4,0,67.6-27.2,111.6-10.6c-11.8-3.9-18.8-2.6-25.6,0.7c8.8,0.7,16.5-0.1,25.2,1.7c-15.4,3.1-33.6,5.4-52.2,8.1
	c-9.3,1.4-18.8,2.5-28,3.2c-8.2,0.6-17.9,1.9-23.8,1.9c-1.8,0-7,0.1-7,0.1s-16.9-2.2-29-5.7c-9.8-2.8-17.5-7.9-17.7-15.2
	c-0.2-5.7-3.2-13.3-5-22.2c-0.8-3.7-2.3-16.1-2.3-20.3c0-0.8,0.8-3.9,3-3.9C178.3,789,178.9,792.1,178.9,792.1z"/>
<path class="st25" d="M150.7,775.4c0,0,6.3,1.3,6.3,4.6s-1.5,14.2-0.4,17.4c1.1,3.2,5.2,4.7,6,7.3c0.7,2.6,7.1,12.2,7.5,16.2
	c0.4,4,4.6,6.2,6.4,6c1.7-0.2,2.7,3.9,2.7,3.9l0.8,6.1c0,0,0.7,2.5,1.2,3.4c0.5,0.8,2.6,3.7,4.7,5.1c2.1,1.4,5.6,3.3,7.2,3.9
	c1.6,0.6,4.5,1.5,4.5,1.5l-12.3-2.9c0,0-7.3-5.9-7.7-6.2c-0.4-0.3-6.8-5.8-6.8-5.8l-7.2-6.7l-6.1-6.7c0,0-4.4-5-5.2-6.4
	c-0.8-1.4-2.7-6.4-3.2-8c-0.5-1.7-1.3-4.2-1.4-5.2s0-4.1,0.1-5.4c0.2-1.3,1-10.9,1.1-11.7c0.1-0.8,1-6.1,1-6.1L150.7,775.4z"/>
<path class="st25" d="M173.4,774l8.3-18.9l-7.3,20.3c0,0-1.4,1.4-1,2.3c0.4,0.9,1.5-0.3,2.7,2.3c1.1,2.6,3.4,6.7,4.9,9.1
	c1.5,2.4,2.2,8.2,2.2,8.2l-2.4-4.9l-1.9-0.3c0,0-0.6-3.1-3.4-3.1c-0.8,0-1.5,0.5-2.1,1.3c-0.5,0.7-0.7,1.8-0.7,1.8s-1.9,0.5-2-0.4
	c-0.1-0.7,1-1.5,0.4-2.3c-1.2-1.7-2.8-3.3-2.8-3.3l0.6-5.3c0,0,0.7-3,1.4-3c0.7,0,0.9-0.9,0.9-0.9l0.7-1.2L173.4,774z"/>
</svg>
