<?xml version="1.0" encoding="utf-8"?>
<!-- Generator: Adobe Illustrator 24.1.2, SVG Export Plug-In . SVG Version: 6.00 Build 0)  -->
<svg version="1.1" id="Capa_1" xmlns="http://www.w3.org/2000/svg" xmlns:xlink="http://www.w3.org/1999/xlink" x="0px" y="0px"
	 viewBox="0 0 56 56" style="enable-background:new 0 0 56 56;" xml:space="preserve">
<style type="text/css">
	.st0{fill:#E9E9E0;}
	.st1{fill:#D9D7CA;}
	.st2{fill:#9777A8;}
	.st3{fill:#FFFFFF;}
	.st4{fill:#5B5B5B;}
</style>
<path class="st0" d="M37,0H8C7.2,0,6.5,0.7,6.5,1.9V55c0,0.3,0.7,1,1.5,1H48c0.8,0,1.5-0.7,1.5-1V13c0-0.7-0.1-0.9-0.3-1.1L37.6,0.3
	C37.4,0.1,37.2,0,37,0z"/>
<polygon class="st1" points="37.5,0.2 37.5,12 49.3,12 "/>
<path class="st2" d="M48,56H8c-0.8,0-1.5-0.7-1.5-1.5V39h43v15.5C49.5,55.3,48.8,56,48,56z"/>
<g>
	<path class="st3" d="M10.4,45v2.5h2.9V45h0.8v6.1h-0.8v-2.8h-2.9v2.8H9.6V45H10.4z"/>
	<path class="st3" d="M16.6,45.7h-1.8V45h4.5v0.7h-1.9v5.4h-0.8V45.7z"/>
	<path class="st3" d="M20.3,49.2l-0.6,1.9h-0.8l2.1-6.1h0.9l2.1,6.1h-0.8l-0.6-1.9H20.3z M22.2,48.6l-0.6-1.7
		c-0.1-0.4-0.2-0.8-0.3-1.1h0c-0.1,0.4-0.2,0.7-0.3,1.1l-0.6,1.8H22.2z"/>
	<path class="st3" d="M28.9,50.9c-0.3,0.1-0.9,0.3-1.6,0.3c-1.7,0-3-1.1-3-3.1c0-1.9,1.3-3.2,3.2-3.2c0.8,0,1.2,0.2,1.4,0.3
		l-0.2,0.6c-0.3-0.1-0.7-0.3-1.2-0.3c-1.4,0-2.4,0.9-2.4,2.5c0,1.5,0.9,2.4,2.3,2.4c0.5,0,1-0.1,1.3-0.3L28.9,50.9z"/>
	<path class="st3" d="M33.9,50.9c-0.3,0.1-0.9,0.3-1.6,0.3c-1.7,0-3-1.1-3-3.1c0-1.9,1.3-3.2,3.2-3.2c0.8,0,1.2,0.2,1.4,0.3
		l-0.2,0.6c-0.3-0.1-0.7-0.3-1.2-0.3c-1.4,0-2.4,0.9-2.4,2.5c0,1.5,0.9,2.4,2.3,2.4c0.5,0,1-0.1,1.3-0.3L33.9,50.9z"/>
	<path class="st3" d="M38,48.2h-2.4v2.2h2.6v0.7h-3.4V45h3.3v0.7h-2.5v1.9H38V48.2z"/>
	<path class="st3" d="M39.2,50.1c0.4,0.2,0.9,0.4,1.4,0.4c0.8,0,1.3-0.4,1.3-1c0-0.6-0.3-0.9-1.1-1.2c-1-0.4-1.6-0.9-1.6-1.7
		c0-0.9,0.8-1.6,2-1.6c0.6,0,1.1,0.1,1.3,0.3l-0.2,0.6c-0.2-0.1-0.6-0.3-1.2-0.3c-0.8,0-1.1,0.5-1.1,0.9c0,0.6,0.4,0.8,1.2,1.2
		c1,0.4,1.5,0.9,1.5,1.8c0,0.9-0.7,1.7-2.1,1.7c-0.6,0-1.2-0.2-1.5-0.4L39.2,50.1z"/>
	<path class="st3" d="M43.7,50.1c0.4,0.2,0.9,0.4,1.4,0.4c0.8,0,1.3-0.4,1.3-1c0-0.6-0.3-0.9-1.1-1.2c-1-0.4-1.6-0.9-1.6-1.7
		c0-0.9,0.8-1.6,2-1.6c0.6,0,1.1,0.1,1.3,0.3l-0.2,0.6c-0.2-0.1-0.6-0.3-1.2-0.3c-0.8,0-1.1,0.5-1.1,0.9c0,0.6,0.4,0.8,1.2,1.2
		c1,0.4,1.5,0.9,1.5,1.8c0,0.9-0.7,1.7-2.1,1.7c-0.6,0-1.2-0.2-1.5-0.4L43.7,50.1z"/>
</g>
<g id="icons">
	<path id="settings" class="st4" d="M37.9,22.9l-1.2-0.7c-1.3-0.8-1.3-2.7,0-3.5l1.2-0.7c1-0.6,1.3-1.8,0.7-2.7l-1-1.7
		c-0.6-1-1.8-1.3-2.7-0.7l-1.2,0.7c-1.3,0.8-3-0.2-3-1.7v-1.4c0-1.1-0.9-2-2-2h-2c-1.1,0-2,0.9-2,2v1.3c0,1.5-1.7,2.5-3,1.7
		l-1.2-0.6c-1-0.6-2.2-0.2-2.7,0.7l-1,1.7c-0.5,1-0.2,2.2,0.7,2.8l1.2,0.7c1.3,0.7,1.3,2.7,0,3.4l-1.2,0.7c-1,0.6-1.3,1.8-0.7,2.7
		l1,1.7c0.6,1,1.8,1.3,2.7,0.7l1.2-0.6c1.3-0.8,3,0.2,3,1.7v1.4c0,1.1,0.9,2,2,2h2c1.1,0,2-0.9,2-2v-1.3c0-1.5,1.7-2.5,3-1.7
		l1.2,0.7c1,0.6,2.2,0.2,2.7-0.7l1-1.7C39.1,24.7,38.8,23.5,37.9,22.9z M27.7,24.5c-2.2,0-4-1.8-4-4s1.8-4,4-4s4,1.8,4,4
		S29.9,24.5,27.7,24.5z"/>
</g>
</svg>
