<?xml version="1.0" encoding="utf-8"?>
<!-- Generator: Adobe Illustrator 24.1.2, SVG Export Plug-In . SVG Version: 6.00 Build 0)  -->
<svg version="1.1" id="Capa_1" xmlns="http://www.w3.org/2000/svg" xmlns:xlink="http://www.w3.org/1999/xlink" x="0px" y="0px"
	 viewBox="0 0 56 56" style="enable-background:new 0 0 56 56;" xml:space="preserve">
<style type="text/css">
	.st0{fill:#E9E9E0;}
	.st1{fill:#D9D7CA;}
	.st2{fill:#7D6599;}
	.st3{fill:#FFFFFF;}
	.st4{enable-background:new    ;}
	.st5{fill:#C8BDB8;}
</style>
<path class="st0" d="M37,0H8C7.2,0,6.5,0.7,6.5,1.9V55c0,0.3,0.7,1,1.5,1h40c0.8,0,1.5-0.7,1.5-1V13c0-0.7-0.1-0.9-0.3-1.1L37.6,0.3
	C37.4,0.1,37.2,0,37,0z"/>
<polygon class="st1" points="37.5,0.2 37.5,12 49.3,12 "/>
<path class="st2" d="M48,56H8c-0.8,0-1.5-0.7-1.5-1.5V39h43v15.5C49.5,55.3,48.8,56,48,56z"/>
<g>
	<path class="st3" d="M16.8,53.3V42.6h2.9c1.1,0,1.8,0.1,2.1,0.2c0.5,0.2,1,0.5,1.3,1.1c0.3,0.5,0.5,1.2,0.5,2.1
		c0,0.8-0.1,1.4-0.4,2c-0.3,0.5-0.7,0.9-1.1,1.1c-0.4,0.2-1.2,0.3-2.3,0.3h-1.2v4.1h-1.8V53.3z M18.5,44.4v3.1h1
		c0.7,0,1.1,0,1.3-0.1c0.2-0.1,0.4-0.3,0.6-0.5s0.2-0.5,0.2-0.9s-0.1-0.7-0.2-0.9c-0.2-0.2-0.4-0.4-0.6-0.5s-0.7-0.1-1.5-0.1
		L18.5,44.4L18.5,44.4z"/>
	<path class="st3" d="M25,53.3V42.6h1.8v4.2h3.5v-4.2H32v10.7h-1.8v-4.7h-3.5v4.7H25z"/>
	<path class="st3" d="M33.8,53.3V42.6h2.9c1.1,0,1.8,0.1,2.1,0.2c0.5,0.2,1,0.5,1.3,1.1c0.3,0.5,0.5,1.2,0.5,2.1
		c0,0.8-0.1,1.4-0.4,2c-0.3,0.5-0.7,0.9-1.1,1.1c-0.4,0.2-1.2,0.3-2.3,0.3h-1.2v4.1h-1.8V53.3z M35.6,44.4v3.1h1
		c0.7,0,1.1,0,1.3-0.1s0.4-0.3,0.6-0.5c0.2-0.2,0.2-0.5,0.2-0.9s-0.1-0.7-0.2-0.9c-0.2-0.2-0.3-0.4-0.6-0.5s-0.7-0.1-1.5-0.1
		L35.6,44.4L35.6,44.4z"/>
</g>
<g class="st4">
	<path class="st5" d="M21.5,28.3l-8.9-4.7V21l8.9-4.7v3.1l-6.2,2.9l6.2,3V28.3z"/>
	<path class="st5" d="M29,26h-2.2l0-0.7c0-0.9,0.1-1.7,0.4-2.2c0.2-0.6,0.7-1.2,1.4-1.9c0.8-0.8,1.2-1.3,1.4-1.6
		c0.2-0.3,0.2-0.6,0.2-1c0-0.6-0.2-1.1-0.6-1.5s-0.9-0.6-1.5-0.6c-1.3,0-2.1,0.9-2.4,2.6l-2.3-0.3c0.1-1.3,0.5-2.4,1.4-3.3
		c0.9-0.9,1.9-1.3,3.2-1.3c1.3,0,2.4,0.4,3.3,1.3s1.3,1.9,1.3,3.2c0,0.7-0.2,1.3-0.5,1.9c-0.3,0.6-1,1.4-2,2.4c-0.5,0.5-0.8,1-1,1.3
		S29,25.2,29,26z M26.7,30.1v-3h2.5v3H26.7z"/>
	<path class="st5" d="M34.2,28.3v-3l6.2-3l-6.2-2.9v-3l8.9,4.7v2.6L34.2,28.3z"/>
</g>
</svg>
