<?xml version="1.0" encoding="utf-8"?>
<!-- Generator: Adobe Illustrator 24.1.2, SVG Export Plug-In . SVG Version: 6.00 Build 0)  -->
<svg version="1.1" id="Capa_1" xmlns="http://www.w3.org/2000/svg" xmlns:xlink="http://www.w3.org/1999/xlink" x="0px" y="0px"
	 viewBox="0 0 56 56" style="enable-background:new 0 0 56 56;" xml:space="preserve">
<style type="text/css">
	.st0{fill:#E9E9E0;}
	.st1{fill:#D9D7CA;}
	.st2{fill:url(#SVGID_1_);}
	.st3{enable-background:new    ;}
	.st4{fill:#FFFFFF;}
	.st5{fill:url(#SVGID_2_);}
	.st6{fill:url(#SVGID_3_);}
</style>
<path class="st0" d="M37,0H8C7.2,0,6.5,0.7,6.5,1.9V55c0,0.3,0.7,1,1.5,1h40c0.8,0,1.5-0.7,1.5-1V13c0-0.7-0.1-0.9-0.3-1.1L37.6,0.3
	C37.4,0.1,37.2,0,37,0z"/>
<polygon class="st1" points="37.5,0.2 37.5,12 49.3,12 "/>
<linearGradient id="SVGID_1_" gradientUnits="userSpaceOnUse" x1="6.5" y1="10.5" x2="49.5" y2="10.5" gradientTransform="matrix(1 0 0 -1 0 58)">
	<stop  offset="0" style="stop-color:#FFE052"/>
	<stop  offset="1" style="stop-color:#FFC331"/>
</linearGradient>
<path class="st2" d="M48,56H8c-0.8,0-1.5-0.7-1.5-1.5V39h43v15.5C49.5,55.3,48.8,56,48,56z"/>
<g class="st3">
	<path class="st4" d="M21.2,53.2V42.4h2.9c1.1,0,1.8,0.1,2.1,0.2c0.5,0.2,1,0.5,1.3,1.1s0.5,1.2,0.5,2.1c0,0.8-0.1,1.4-0.4,2
		c-0.3,0.5-0.7,0.9-1.1,1.1c-0.4,0.2-1.2,0.3-2.3,0.3H23v4.1H21.2z M23,44.3v3.1h1c0.7,0,1.1,0,1.3-0.1c0.2-0.1,0.4-0.3,0.6-0.5
		s0.2-0.5,0.2-0.9c0-0.4-0.1-0.7-0.2-0.9c-0.2-0.2-0.4-0.4-0.6-0.5s-0.7-0.1-1.5-0.1H23z"/>
	<path class="st4" d="M31.8,53.2v-4.5l-3.2-6.2h2.1l2.1,4.2l2-4.2h2l-3.2,6.2v4.5H31.8z"/>
</g>
<g>
	
		<linearGradient id="SVGID_2_" gradientUnits="userSpaceOnUse" x1="-451.5099" y1="2.4482" x2="-451.4437" y2="2.5137" gradientTransform="matrix(189.3834 0 0 189.8058 85526.2109 -453.9424)">
		<stop  offset="0" style="stop-color:#387EB8"/>
		<stop  offset="1" style="stop-color:#366994"/>
	</linearGradient>
	<path class="st5" d="M28,8.4c-6.4,0-6,2.8-6,2.8v2.9h6.1V15h-8.6c0,0-4.1-0.5-4.1,6s3.6,6.3,3.6,6.3h2.1v-3c0,0-0.1-3.6,3.5-3.6
		h6.1c0,0,3.4,0.1,3.4-3.3v-5.6C34.2,11.8,34.7,8.4,28,8.4L28,8.4L28,8.4z M24.6,10.3c0.6,0,1.1,0.5,1.1,1.1s-0.5,1.1-1.1,1.1
		s-1.1-0.5-1.1-1.1S24,10.3,24.6,10.3L24.6,10.3L24.6,10.3z"/>
	
		<linearGradient id="SVGID_3_" gradientUnits="userSpaceOnUse" x1="-451.8175" y1="2.1516" x2="-451.7465" y2="2.2189" gradientTransform="matrix(189.3834 0 0 189.8058 85592.2188 -389.6807)">
		<stop  offset="0" style="stop-color:#FFE052"/>
		<stop  offset="1" style="stop-color:#FFC331"/>
	</linearGradient>
	<path class="st6" d="M28.1,33.6c6.4,0,6-2.8,6-2.8v-2.9H28V27h8.6c0,0,4.1,0.5,4.1-6s-3.6-6.3-3.6-6.3H35v3c0,0,0.1,3.6-3.5,3.6
		h-6.1c0,0-3.4-0.1-3.4,3.3v5.6C21.9,30.2,21.4,33.6,28.1,33.6L28.1,33.6L28.1,33.6z M31.5,31.7c-0.6,0-1.1-0.5-1.1-1.1
		s0.5-1.1,1.1-1.1c0.6,0,1.1,0.5,1.1,1.1S32.1,31.7,31.5,31.7L31.5,31.7L31.5,31.7z"/>
</g>
</svg>
