<?xml version="1.0" encoding="utf-8"?>
<!-- Generator: Adobe Illustrator 24.1.2, SVG Export Plug-In . SVG Version: 6.00 Build 0)  -->
<svg version="1.1" id="Capa_1" xmlns="http://www.w3.org/2000/svg" xmlns:xlink="http://www.w3.org/1999/xlink" x="0px" y="0px"
	 viewBox="0 0 56 56" style="enable-background:new 0 0 56 56;" xml:space="preserve">
<style type="text/css">
	.st0{fill:#E9E9E0;}
	.st1{fill:#D9D7CA;}
	.st2{fill:#556080;}
	.st3{fill:#C8BDB8;}
	.st4{fill:#FFFFFF;}
</style>
<g>
	<path class="st0" d="M37,0H8C7.2,0,6.5,0.6,6.5,1.9V55c0,0.3,0.7,1,1.5,1h40c0.8,0,1.5-0.7,1.5-1V13c0-0.7-0.1-0.9-0.3-1.1
		L37.6,0.3C37.4,0.1,37.2,0,37,0z"/>
	<polygon class="st1" points="37.5,0.2 37.5,12 49.3,12 	"/>
	<path class="st2" d="M48,56H8c-0.8,0-1.5-0.6-1.5-1.4c0,0,0,0,0,0V39h43v15.5C49.5,55.3,48.8,56,48,56C48,56,48,56,48,56z"/>
	<path class="st3" d="M28.5,24v-2h2v-2h-2v-2h2v-2h-2v-2h2v-2h-2v-2h2V8h-2V6h-2v2h-2v2h2v2h-2v2h2v2h-2v2h2v2h-2v2h2v2h-4v5
		c0,2.8,2.2,5,5,5s5-2.2,5-5v-5H28.5z M30.5,29c0,1.7-1.3,3-3,3s-3-1.3-3-3l0,0v-3h6V29z"/>
	<path class="st3" d="M26.5,30h2c0.6,0,1-0.4,1-1s-0.4-1-1-1h-2c-0.6,0-1,0.4-1,1S25.9,30,26.5,30z"/>
	<path class="st4" d="M16.5,52.8v-10H20c0.6,0,1.3,0.1,1.9,0.3c0.4,0.2,0.7,0.5,0.9,0.9c0.3,0.5,0.4,1,0.4,1.6
		c0,0.7-0.2,1.3-0.6,1.9c-0.4,0.5-1,0.8-1.6,0.9c0.3,0.2,0.6,0.5,0.9,0.8c0.4,0.5,0.7,1.1,1,1.6l1,2h-2l-1.2-2.2
		c-0.3-0.5-0.6-1-0.9-1.5c-0.1-0.2-0.3-0.3-0.5-0.4c-0.3-0.1-0.5-0.1-0.8-0.1h-0.3v4.2L16.5,52.8z M18.2,47.1h1.2c0.5,0,1,0,1.4-0.1
		c0.2-0.1,0.4-0.2,0.5-0.4c0.1-0.2,0.2-0.5,0.2-0.8c0-0.3-0.1-0.5-0.2-0.8c-0.1-0.2-0.3-0.3-0.5-0.4c-0.4-0.1-0.9-0.1-1.3-0.1h-1.3
		V47.1z"/>
	<path class="st4" d="M32.2,52.8h-1.8l-0.7-2.3h-3.3l-0.7,2.3H24l3.2-10h1.7L32.2,52.8z M29.2,48.8L28,45.2l-1.1,3.7L29.2,48.8z"/>
	<path class="st4" d="M33.1,52.8v-10h3.5c0.6,0,1.3,0.1,1.9,0.3c0.4,0.2,0.7,0.5,0.9,0.9c0.3,0.5,0.4,1,0.4,1.6
		c0,0.7-0.2,1.3-0.6,1.9c-0.4,0.5-1,0.8-1.6,0.9c0.3,0.2,0.6,0.5,0.9,0.8c0.4,0.5,0.7,1.1,1,1.6l1,2h-2l-1.2-2.2
		c-0.3-0.5-0.6-1-0.9-1.5c-0.1-0.2-0.3-0.3-0.5-0.4c-0.3-0.1-0.5-0.1-0.8-0.1h-0.3v4.2L33.1,52.8z M34.7,47.1H36c0.5,0,1,0,1.4-0.1
		c0.2-0.1,0.4-0.2,0.5-0.4c0.1-0.2,0.2-0.5,0.2-0.8c0-0.3-0.1-0.5-0.2-0.8c-0.1-0.2-0.3-0.3-0.5-0.4c-0.5-0.1-0.9-0.1-1.4-0.1h-1.3
		L34.7,47.1z"/>
</g>
</svg>
