<?xml version="1.0" encoding="utf-8"?>
<!-- Generator: Adobe Illustrator 24.1.2, SVG Export Plug-In . SVG Version: 6.00 Build 0)  -->
<svg version="1.1" id="Capa_1" xmlns="http://www.w3.org/2000/svg" xmlns:xlink="http://www.w3.org/1999/xlink" x="0px" y="0px"
	 viewBox="0 0 56 56" style="enable-background:new 0 0 56 56;" xml:space="preserve">
<style type="text/css">
	.st0{fill:#E9E9E0;}
	.st1{fill:#D9D7CA;}
	.st2{fill:#0096E6;}
	.st3{fill:#00D2B8;}
	.st4{fill:#55DDCA;}
	.st5{fill:#0081C6;}
	.st6{fill:#0079B3;}
	.st7{fill:#00A4E4;}
	.st8{fill:#FFFFFF;}
</style>
<path class="st0" d="M37,0H8C7.2,0,6.5,0.7,6.5,1.9V55c0,0.3,0.7,1,1.5,1H48c0.8,0,1.5-0.7,1.5-1V13c0-0.7-0.1-0.9-0.3-1.1L37.6,0.3
	C37.4,0.1,37.2,0,37,0z"/>
<polygon class="st1" points="37.5,0.2 37.5,12 49.3,12 "/>
<path class="st2" d="M48,56H8c-0.8,0-1.5-0.7-1.5-1.5V39h43v15.5C49.5,55.3,48.8,56,48,56z"/>
<g>
	<path class="st3" d="M21.6,15.8l-1.5-1.5l0,10.6l0,0.5c0,0.2,0.1,0.5,0.1,0.8l11.6,4.1l2.9-1.3l0,0L21.6,15.8"/>
	<path class="st4" d="M20.3,26.2L20.3,26.2C20.3,26.2,20.3,26.1,20.3,26.2C20.3,26.1,20.3,26.2,20.3,26.2L20.3,26.2z M34.7,29
		l-2.9,1.3l-11.6-4.1c0.2,0.8,0.7,1.8,1.2,2.3l3.8,3.8l8.4,0L34.7,29L34.7,29L34.7,29z"/>
	<path class="st5" d="M15.6,21.1c-0.4,0.4-0.2,1.2,0.4,1.8l2.6,2.6l1.6,0.6c-0.1-0.3-0.1-0.5-0.1-0.8l0-0.5l0-10.6L15.6,21.1z"/>
	<path class="st6" d="M31.9,14.5c-0.3-0.1-0.5-0.1-0.8-0.1l-0.5,0l-10.5,0L34.7,29h0l1.3-2.9L31.9,14.5"/>
	<path class="st7" d="M31.9,14.5C31.9,14.5,31.9,14.5,31.9,14.5L31.9,14.5C31.9,14.5,31.9,14.5,31.9,14.5L31.9,14.5z M34.3,15.7
		c-0.5-0.5-1.5-1-2.3-1.2L36,26.1L34.7,29h0l3.1-1l0-8.6L34.3,15.7L34.3,15.7z"/>
	<path class="st3" d="M31.4,12.8l-2.6-2.6c-0.6-0.6-1.4-0.8-1.8-0.4l-6.8,4.5l10.5,0l0.5,0c0.2,0,0.5,0.1,0.8,0.1L31.4,12.8
		L31.4,12.8z"/>
</g>
<g>
	<path class="st8" d="M13.4,42.6h3c0.8,0,1.3,0.1,1.7,0.3c0.4,0.2,0.7,0.5,1.1,0.9c0.3,0.4,0.6,0.9,0.8,1.6s0.3,1.5,0.3,2.4
		c0,0.9-0.1,1.6-0.3,2.3c-0.2,0.6-0.4,1.1-0.7,1.5c-0.3,0.4-0.7,0.7-1.1,0.8c-0.4,0.2-1,0.3-1.6,0.3h-3.1V42.6z M15,44.3v6.6h1.2
		c0.5,0,0.9,0,1.2-0.2c0.2-0.1,0.4-0.3,0.6-0.5c0.2-0.2,0.3-0.5,0.4-1c0.1-0.4,0.2-1,0.2-1.7c0-0.7-0.1-1.3-0.2-1.8
		c-0.1-0.4-0.3-0.8-0.5-1c-0.2-0.2-0.5-0.4-0.8-0.5c-0.2-0.1-0.7-0.1-1.3-0.1H15z"/>
	<path class="st8" d="M29.1,52.6h-1.8l-0.7-2.3h-3.3l-0.7,2.3h-1.8l3.2-10h1.8L29.1,52.6z M26,48.6l-1.1-3.7l-1.1,3.7H26z"/>
	<path class="st8" d="M29.9,52.6v-10h3.5c0.9,0,1.5,0.1,1.9,0.3c0.4,0.2,0.7,0.5,0.9,0.9c0.2,0.4,0.4,1,0.4,1.6
		c0,0.8-0.2,1.4-0.6,1.9c-0.4,0.5-0.9,0.8-1.6,0.9c0.4,0.3,0.6,0.5,0.9,0.8c0.2,0.3,0.5,0.8,1,1.6l1,2h-2l-1.2-2.2
		c-0.4-0.8-0.7-1.3-0.9-1.5c-0.2-0.2-0.3-0.3-0.5-0.4c-0.2-0.1-0.5-0.1-0.8-0.1h-0.3v4.2H29.9z M31.6,46.8h1.2c0.8,0,1.2,0,1.4-0.1
		c0.2-0.1,0.4-0.2,0.5-0.4s0.2-0.5,0.2-0.8c0-0.3-0.1-0.6-0.2-0.8c-0.1-0.2-0.3-0.3-0.5-0.4c-0.2,0-0.6-0.1-1.3-0.1h-1.3V46.8z"/>
	<path class="st8" d="M40.1,52.6v-8.3h-2.4v-1.7h6.5v1.7h-2.4v8.3H40.1z"/>
</g>
</svg>
