<?xml version="1.0" encoding="utf-8"?>
<!-- Generator: Adobe Illustrator 24.1.2, SVG Export Plug-In . SVG Version: 6.00 Build 0)  -->
<svg version="1.1" id="Capa_1" xmlns="http://www.w3.org/2000/svg" xmlns:xlink="http://www.w3.org/1999/xlink" x="0px" y="0px"
	 viewBox="0 0 56 56" style="enable-background:new 0 0 56 56;" xml:space="preserve">
<style type="text/css">
	.st0{fill:#E9E9E0;}
	.st1{fill:#D9D7CA;}
	.st2{fill:#0096E6;}
	.st3{fill:#FFFFFF;}
	.st4{fill:#39CEFD;}
	.st5{fill:#03569B;}
	.st6{fill:url(#SVGID_1_);}
	.st7{fill:#16B9FD;}
</style>
<path class="st0" d="M37,0H8C7.2,0,6.5,0.7,6.5,1.9V55c0,0.3,0.7,1,1.5,1h40c0.8,0,1.5-0.7,1.5-1V13c0-0.7-0.1-0.9-0.3-1.1L37.6,0.3
	C37.4,0.1,37.2,0,37,0z"/>
<polygon class="st1" points="37.5,0.2 37.5,12 49.3,12 "/>
<path class="st2" d="M48,56H8c-0.8,0-1.5-0.7-1.5-1.5V39h43v15.5C49.5,55.3,48.8,56,48,56z"/>
<g>
	<path class="st3" d="M13.4,42.6h3c0.8,0,1.3,0.1,1.7,0.3c0.4,0.2,0.7,0.5,1.1,0.9c0.3,0.4,0.6,0.9,0.8,1.6s0.3,1.5,0.3,2.4
		s-0.1,1.6-0.3,2.3c-0.2,0.6-0.4,1.1-0.7,1.5c-0.3,0.4-0.7,0.7-1.1,0.8c-0.4,0.2-1,0.3-1.6,0.3h-3.1L13.4,42.6L13.4,42.6z M15,44.3
		v6.6h1.2c0.5,0,0.9,0,1.2-0.2c0.2-0.1,0.4-0.3,0.6-0.5s0.3-0.5,0.4-1c0.1-0.4,0.2-1,0.2-1.7s-0.1-1.3-0.2-1.8
		c-0.1-0.4-0.3-0.8-0.5-1s-0.5-0.4-0.8-0.5c-0.2-0.1-0.7-0.1-1.3-0.1H15V44.3z"/>
	<path class="st3" d="M29.1,52.6h-1.8l-0.7-2.3h-3.3l-0.7,2.3h-1.8l3.2-10h1.8L29.1,52.6z M26,48.6l-1.1-3.7l-1.1,3.7H26z"/>
	<path class="st3" d="M29.9,52.6v-10h3.5c0.9,0,1.5,0.1,1.9,0.3s0.7,0.5,0.9,0.9s0.4,1,0.4,1.6c0,0.8-0.2,1.4-0.6,1.9
		c-0.4,0.5-0.9,0.8-1.6,0.9c0.4,0.3,0.6,0.5,0.9,0.8c0.2,0.3,0.5,0.8,1,1.6l1,2h-2l-1.2-2.2c-0.4-0.8-0.7-1.3-0.9-1.5
		s-0.3-0.3-0.5-0.4c-0.2-0.1-0.5-0.1-0.8-0.1h-0.3v4.2H29.9z M31.6,46.8h1.2c0.8,0,1.2,0,1.4-0.1s0.4-0.2,0.5-0.4s0.2-0.5,0.2-0.8
		s-0.1-0.6-0.2-0.8c-0.1-0.2-0.3-0.3-0.5-0.4c-0.2,0-0.6-0.1-1.3-0.1h-1.3C31.6,44.2,31.6,46.8,31.6,46.8z"/>
	<path class="st3" d="M40.1,52.6v-8.3h-2.4v-1.7h6.5v1.7h-2.4v8.3H40.1z"/>
</g>
<g>
	<path class="st4" d="M24.3,27.2l3.4,3.4l9.3-9.3h-6.7L24.3,27.2z"/>
	<path class="st4" d="M30.2,11h6.7L22.6,25.5l-3.4-3.4L30.2,11z"/>
	<path class="st5" d="M27.6,30.5l2.5,2.5h6.7L31,27.2L27.6,30.5z"/>
	
		<linearGradient id="SVGID_1_" gradientUnits="userSpaceOnUse" x1="37069.9766" y1="17949.6406" x2="37110.832" y2="17908.7852" gradientTransform="matrix(6.000000e-02 0 0 6.000000e-02 -2195.8101 -1045.58)">
		<stop  offset="0" style="stop-color:#1A237E;stop-opacity:0.4"/>
		<stop  offset="1" style="stop-color:#1A237E;stop-opacity:0"/>
	</linearGradient>
	<path class="st6" d="M32.6,28.8L31,27.2l-3.4,3.4L32.6,28.8z"/>
	<path class="st7" d="M24.3,27.2l3.4-3.4l3.4,3.4l-3.4,3.4L24.3,27.2z"/>
</g>
</svg>
