<?xml version="1.0" encoding="utf-8"?>
<!-- Generator: Adobe Illustrator 24.1.2, SVG Export Plug-In . SVG Version: 6.00 Build 0)  -->
<svg version="1.1" id="Capa_1" xmlns="http://www.w3.org/2000/svg" xmlns:xlink="http://www.w3.org/1999/xlink" x="0px" y="0px"
	 viewBox="0 0 56 56" style="enable-background:new 0 0 56 56;" xml:space="preserve">
<style type="text/css">
	.st0{fill:#E9E9E0;}
	.st1{fill:#D9D7CA;}
	.st2{fill:#EF8200;}
	.st3{fill:url(#SVGID_1_);}
	.st4{fill:url(#SVGID_2_);}
	.st5{fill:url(#SVGID_3_);}
	.st6{fill:#FFFFFF;}
</style>
<path class="st0" d="M37,0H8C7.2,0,6.5,0.7,6.5,1.9V55c0,0.3,0.7,1,1.5,1H48c0.8,0,1.5-0.7,1.5-1V13c0-0.7-0.1-0.9-0.3-1.1L37.6,0.3
	C37.4,0.1,37.2,0,37,0z"/>
<polygon class="st1" points="37.5,0.2 37.5,12 49.3,12 "/>
<path class="st2" d="M48,56H8c-0.8,0-1.5-0.7-1.5-1.5V39h43v15.5C49.5,55.3,48.8,56,48,56z"/>
<g>
	
		<linearGradient id="SVGID_1_" gradientUnits="userSpaceOnUse" x1="-226.0196" y1="283.9353" x2="-225.9845" y2="284.0053" gradientTransform="matrix(256 0 0 -128.4267 57885 36502.1719)">
		<stop  offset="9.677000e-02" style="stop-color:#0095D5"/>
		<stop  offset="0.3007" style="stop-color:#238AD9"/>
		<stop  offset="0.6211" style="stop-color:#557BDE"/>
		<stop  offset="0.8643" style="stop-color:#7472E2"/>
		<stop  offset="1" style="stop-color:#806EE3"/>
	</linearGradient>
	<polygon class="st3" points="18.9,32.9 28.5,23.3 37.9,32.9 	"/>
	
		<linearGradient id="SVGID_2_" gradientUnits="userSpaceOnUse" x1="-225.0749" y1="283.2357" x2="-225.0342" y2="283.2733" gradientTransform="matrix(128.4267 0 0 -138.6667 28925.8535 39293)">
		<stop  offset="0.1183" style="stop-color:#0095D5"/>
		<stop  offset="0.4178" style="stop-color:#3C83DC"/>
		<stop  offset="0.6962" style="stop-color:#6D74E1"/>
		<stop  offset="0.8333" style="stop-color:#806EE3"/>
	</linearGradient>
	<polygon class="st4" points="18.9,13.8 28.5,13.8 18.9,24.1 	"/>
	
		<linearGradient id="SVGID_3_" gradientUnits="userSpaceOnUse" x1="-226.052" y1="283.9909" x2="-225.9828" y2="284.0601" gradientTransform="matrix(256 0 0 -256 57885 72733)">
		<stop  offset="0.1075" style="stop-color:#C757BC"/>
		<stop  offset="0.2138" style="stop-color:#D0609A"/>
		<stop  offset="0.4254" style="stop-color:#E1725C"/>
		<stop  offset="0.6048" style="stop-color:#EE7E2F"/>
		<stop  offset="0.743" style="stop-color:#F58613"/>
		<stop  offset="0.8232" style="stop-color:#F88909"/>
	</linearGradient>
	<polygon class="st5" points="28.5,13.8 18.9,23.9 18.9,32.9 28.5,23.3 37.9,13.8 	"/>
</g>
<g>
	<path class="st6" d="M21.1,53.6V42.9h1.8v4.8l3.6-4.8h2.4l-3.3,4.2l3.5,6.6h-2.3l-2.4-5l-1.4,1.8v3.2H21.1z"/>
	<path class="st6" d="M31.9,53.6v-8.9h-2.6v-1.8h7v1.8h-2.6v8.9H31.9z"/>
</g>
</svg>
